<svg width="52" height="61" viewBox="0 0 52 61" fill="none" xmlns="http://www.w3.org/2000/svg">
<g clip-path="url(#clip0_1_358)">
<g clip-path="url(#clip1_1_358)">
<g clip-path="url(#clip2_1_358)">
<path d="M40.3072 26.811C40.7831 26.908 41.247 26.6012 41.3443 26.1243C41.5616 25.0599 41.6716 23.9646 41.6716 22.8685C41.6716 13.9588 34.4447 6.70996 25.5616 6.70996C16.6785 6.70996 9.45166 13.9588 9.45166 22.8685C9.45166 31.7783 16.6785 39.0271 25.5616 39.0271C31.6164 39.0271 37.1047 35.6725 39.8846 30.2725C40.1073 29.8399 39.9383 29.3082 39.507 29.0849C39.0759 28.8615 38.5457 29.0312 38.3231 29.4635C35.846 34.2752 30.9562 37.2643 25.5618 37.2643C17.6477 37.2643 11.2092 30.8064 11.2092 22.8684C11.2092 14.9305 17.6477 8.47257 25.5618 8.47257C33.4758 8.47257 39.9143 14.9305 39.9143 22.8684C39.9143 23.8459 39.8162 24.8224 39.6226 25.7707C39.5253 26.2476 39.8319 26.7134 40.3072 26.811Z" fill="white"/>
<path d="M35.3384 19.5906C35.2348 19.2707 34.9591 19.0381 34.6274 18.9904L28.9004 18.1676L26.3505 12.9586C26.0592 12.3112 25.064 12.3114 24.7729 12.9586L22.2229 18.1675L16.496 18.9903C15.7914 19.0682 15.4852 20.0181 16.0084 20.495L20.1594 24.5372L19.1699 30.2545C19.026 30.9486 19.83 31.537 20.4462 31.1847L25.5616 28.4739L30.6771 31.1847C31.2923 31.537 32.0976 30.9486 31.9534 30.2545L30.9638 24.5372L35.1148 20.495C35.3553 20.261 35.442 19.9101 35.3384 19.5906ZM29.4066 23.597C29.1981 23.7998 29.1032 24.0929 29.1528 24.38L29.9156 28.7876L25.9721 26.6978C25.7152 26.5617 25.4079 26.5617 25.151 26.6978L21.2075 28.7876L21.9703 24.38C22.02 24.0929 21.925 23.7998 21.7165 23.597L18.5165 20.4807L22.9315 19.8463C23.2191 19.8049 23.4677 19.6239 23.5957 19.3623L25.5615 15.3468L27.5273 19.3623C27.6553 19.6238 27.904 19.8049 28.1914 19.8463L32.6066 20.4807L29.4066 23.597Z" fill="white"/>
<path d="M50.221 53.0501L41.6324 38.1291C45.3931 34.147 47.7032 28.7734 47.7032 22.8683C47.7031 10.6227 37.7706 0.660156 25.5617 0.660156C21.8053 0.660156 18.0943 1.62101 14.8295 3.43892C14.4052 3.67524 14.2522 4.21173 14.4877 4.63739C14.7232 5.0628 15.2582 5.21629 15.6825 4.9802C18.6869 3.30723 22.103 2.42299 25.5617 2.42299C36.8015 2.42299 45.9457 11.5949 45.9457 22.8685C45.9457 34.1422 36.8015 43.3141 25.5617 43.3141C14.3219 43.3141 5.1777 34.1422 5.1777 22.8683C5.1777 16.8204 7.82642 11.1158 12.4449 7.21755C12.8162 6.90414 12.8638 6.34809 12.5514 5.97574C12.2389 5.60328 11.6846 5.55525 11.3133 5.86889C6.2972 10.1028 3.42026 16.2989 3.42026 22.8683C3.42026 28.7835 5.7381 34.1655 9.51018 38.1497L7.07775 42.3755C6.49486 43.3538 8.03719 44.2583 8.5997 43.2569L10.811 39.4155C13.4563 41.7904 16.6722 43.5379 20.2244 44.423L12.6417 57.5962L10.702 51.4731C10.5646 51.039 10.1199 50.7817 9.6763 50.8791L3.41967 52.2557L6.54911 46.819C6.79175 46.3974 6.64775 45.8584 6.22749 45.6151C5.80711 45.3717 5.2698 45.5161 5.02715 45.9376L0.902064 53.104C0.510738 53.7335 1.13217 54.589 1.85132 54.4057L9.26976 52.7733L11.5696 60.0334C11.7706 60.7476 12.8169 60.864 13.168 60.2072L22.0395 44.7947C23.1868 44.9795 24.3629 45.0768 25.5614 45.0768C26.7696 45.0768 27.9551 44.9776 29.1114 44.79L34.4396 54.0467C34.6023 54.3296 34.8977 54.4875 35.2014 54.4875C35.3504 54.4875 35.5016 54.4494 35.64 54.3693C36.0602 54.1258 36.2042 53.5869 35.9615 53.1653L30.9256 44.4163C34.4763 43.5267 37.69 41.7755 40.3324 39.3972L47.7031 52.202L41.4465 50.8253C41.0029 50.7277 40.5583 50.9852 40.4207 51.4193L38.481 57.5424L38.0119 56.7274C37.7693 56.3059 37.2319 56.1615 36.8116 56.4049C36.3913 56.6484 36.2474 57.1873 36.49 57.6088L37.9546 60.1535C38.3059 60.8104 39.3521 60.6939 39.5531 59.9798L41.8529 52.7196L49.2714 54.3521C49.9912 54.5345 50.6121 53.6798 50.221 53.0501Z" fill="white"/>
</g>
</g>
</g>
<defs>
<clipPath id="clip0_1_358">
<rect width="50.42" height="59.98" fill="white" transform="translate(0.780029 0.660156)"/>
</clipPath>
<clipPath id="clip1_1_358">
<rect width="50.42" height="59.98" fill="white" transform="translate(0.780029 0.660156)"/>
</clipPath>
<clipPath id="clip2_1_358">
<rect width="50.418" height="59.98" fill="white" transform="translate(0.781006 0.660156)"/>
</clipPath>
</defs>
</svg>
