<svg width="70" height="67" viewBox="0 0 70 67" fill="none" xmlns="http://www.w3.org/2000/svg">
<g clip-path="url(#clip0_48_1272)">
<g clip-path="url(#clip1_48_1272)">
<path d="M44.5703 33.4724C43.8156 33.4724 43.2031 34.0849 43.2031 34.8396C43.2031 35.5943 43.8156 36.2068 44.5703 36.2068C45.325 36.2068 45.9375 35.5943 45.9375 34.8396C45.9375 34.0849 45.325 33.4724 44.5703 33.4724Z" fill="#307BC4"/>
<path d="M56.8749 55.3474H55.2416L50.7908 30.3934C49.9623 25.84 46.0019 22.5349 41.3737 22.5349H28.6261C23.9971 22.5349 20.0372 25.8401 19.2096 30.398L14.7582 55.3474H13.125C10.8634 55.3474 9.02344 57.1873 9.02344 59.4489V64.9176C9.02344 65.6726 9.63553 66.2848 10.3906 66.2848H59.6092C60.3642 66.2848 60.9764 65.6726 60.9764 64.9176V59.4489C60.9764 57.1873 59.1365 55.3474 56.8749 55.3474ZM21.9008 30.8824C22.4913 27.63 25.3197 25.2693 28.6261 25.2693H41.3737C44.6797 25.2693 47.5087 27.6302 48.0996 30.8782L52.4641 55.3474H17.5358L21.9008 30.8824ZM58.2421 63.5505H11.7578V59.4489C11.7578 58.695 12.3711 58.0817 13.125 58.0817C16.1975 58.0817 55.0132 58.0817 56.8749 58.0817C57.6287 58.0817 58.2421 58.695 58.2421 59.4489V63.5505Z" fill="#307BC4"/>
<path d="M48.978 51.0014L46.9724 39.9614C46.8374 39.2182 46.1244 38.7249 45.3829 38.8606C44.6398 38.9955 44.1471 39.7071 44.282 40.4501L46.2877 51.4901C46.4236 52.2387 47.1411 52.7254 47.8772 52.5909C48.6202 52.456 49.1131 51.7442 48.978 51.0014Z" fill="#307BC4"/>
<path d="M68.6328 33.4724H56.875C56.12 33.4724 55.5078 34.0847 55.5078 34.8396C55.5078 35.5946 56.12 36.2068 56.875 36.2068H68.6328C69.3877 36.2068 70 35.5946 70 34.8396C70 34.0847 69.3877 33.4724 68.6328 33.4724Z" fill="#307BC4"/>
<path d="M13.125 33.4724H1.36718C0.612088 33.4724 0 34.0847 0 34.8396C0 35.5946 0.612088 36.2068 1.36718 36.2068H13.125C13.8801 36.2068 14.4921 35.5946 14.4921 34.8396C14.4921 34.0847 13.8801 33.4724 13.125 33.4724Z" fill="#307BC4"/>
<path d="M59.1678 10.6704C58.6337 10.1366 57.7683 10.1366 57.2342 10.6704L49.5 18.4045C48.9661 18.9384 48.9661 19.8041 49.5 20.3382C50.0342 20.872 50.8995 20.8719 51.4336 20.3382L59.1678 12.604C59.7018 12.07 59.7018 11.2043 59.1678 10.6704Z" fill="#307BC4"/>
<path d="M20.4998 18.4046L12.7657 10.6704C12.2317 10.1367 11.3661 10.1365 10.8321 10.6704C10.2982 11.2043 10.2982 12.07 10.8321 12.604L18.5662 20.3382C19.1004 20.8721 19.9658 20.8721 20.4998 20.3382C21.0337 19.8043 21.0337 18.9386 20.4998 18.4046Z" fill="#307BC4"/>
<path d="M35 0.659973C34.245 0.659973 33.6328 1.2722 33.6328 2.02715V12.9647C33.6328 13.7196 34.245 14.3318 35 14.3318C35.755 14.3318 36.3672 13.7196 36.3672 12.9647V2.02715C36.3672 1.2722 35.755 0.659973 35 0.659973Z" fill="#307BC4"/>
</g>
</g>
<defs>
<clipPath id="clip0_48_1272">
<rect width="70" height="66" fill="white" transform="translate(0 0.659973)"/>
</clipPath>
<clipPath id="clip1_48_1272">
<rect width="70" height="66" fill="white" transform="translate(0 0.659973)"/>
</clipPath>
</defs>
</svg>
