<svg width="18" height="19" viewBox="0 0 18 19" fill="none" xmlns="http://www.w3.org/2000/svg">
<g clip-path="url(#clip0_25_461)">
<g clip-path="url(#clip1_25_461)">
<g clip-path="url(#clip2_25_461)">
<mask id="mask0_25_461" style="mask-type:luminance" maskUnits="userSpaceOnUse" x="0" y="0" width="18" height="19">
<path d="M0 0.820007H18V18.82H0V0.820007Z" fill="white"/>
</mask>
<g mask="url(#mask0_25_461)">
<path d="M15.6295 4.21878C15.1901 4.65813 14.4778 4.65813 14.0385 4.21878C13.5991 3.77943 13.5991 3.06713 14.0385 2.62778C14.4778 2.18844 15.1901 2.18844 15.6295 2.62778C16.0688 3.06713 16.0688 3.77943 15.6295 4.21878Z" stroke="white" stroke-miterlimit="10" stroke-linecap="round" stroke-linejoin="round"/>
<path d="M3.96152 17.0122C3.52217 17.4516 2.80987 17.4516 2.37053 17.0122C1.93118 16.5729 1.93118 15.8606 2.37053 15.4212C2.80987 14.9819 3.52217 14.9819 3.96152 15.4212C4.40087 15.8606 4.40087 16.5729 3.96152 17.0122Z" stroke="white" stroke-miterlimit="10" stroke-linecap="round" stroke-linejoin="round"/>
<path d="M7.29395 18.3003C7.84534 18.4106 8.41564 18.4684 8.99948 18.4684C13.7759 18.4684 17.6479 14.5964 17.6479 9.82001C17.6479 7.73493 16.9099 5.82229 15.681 4.32874" stroke="white" stroke-miterlimit="10" stroke-linecap="round" stroke-linejoin="round"/>
<path d="M10.722 1.34297C10.1655 1.23054 9.58964 1.17151 9 1.17151C4.2236 1.17151 0.351562 5.04355 0.351562 9.81994C0.351562 11.905 1.08956 13.8177 2.31845 15.3112" stroke="white" stroke-miterlimit="10" stroke-linecap="round" stroke-linejoin="round"/>
<path d="M9.0006 12.3734C7.59041 12.3734 6.4472 11.2302 6.4472 9.82001C6.4472 8.40982 7.59041 7.26665 9.0006 7.26665C10.4108 7.26665 11.554 8.40982 11.554 9.82001C11.554 11.2302 10.4108 12.3734 9.0006 12.3734ZM14.0925 8.71776C13.9585 8.09437 13.7132 7.51235 13.3781 6.99376L14.0517 6.32013L12.4967 4.76633L11.8237 5.4394C11.3051 5.10426 10.7231 4.85897 10.0997 4.72506V3.77313H7.90147V4.72506C7.27808 4.85897 6.69611 5.10426 6.17752 5.4394L5.50445 4.76633L3.94953 6.32013L4.62312 6.99376C4.28797 7.51235 4.0427 8.09437 3.90875 8.71776H2.95432L2.95312 10.916H3.90872C4.04266 11.5394 4.28794 12.1214 4.62308 12.64L3.94692 13.3161L5.50073 14.8711L6.17746 14.1944C6.69608 14.5295 7.27808 14.7748 7.90147 14.9088V15.8669H10.0997V14.9088C10.7231 14.7748 11.3051 14.5295 11.8238 14.1944L12.5005 14.8711L14.0543 13.3161L13.3781 12.64C13.7133 12.1214 13.9585 11.5394 14.0925 10.916H15.0481V8.71776H14.0925Z" stroke="white" stroke-miterlimit="10" stroke-linecap="round" stroke-linejoin="round"/>
</g>
</g>
</g>
</g>
<defs>
<clipPath id="clip0_25_461">
<rect width="18" height="18" fill="white" transform="translate(0 0.820007)"/>
</clipPath>
<clipPath id="clip1_25_461">
<rect width="18" height="18" fill="white" transform="translate(0 0.820007)"/>
</clipPath>
<clipPath id="clip2_25_461">
<rect width="18" height="18" fill="white" transform="translate(0 0.820007)"/>
</clipPath>
</defs>
</svg>
