<svg width="28" height="27" viewBox="0 0 28 27" fill="none" xmlns="http://www.w3.org/2000/svg">
<g clip-path="url(#clip0_5_927)">
<g clip-path="url(#clip1_5_927)">
<g clip-path="url(#clip2_5_927)">
<mask id="mask0_5_927" style="mask-type:luminance" maskUnits="userSpaceOnUse" x="0" y="0" width="27" height="27">
<path d="M0.918701 0.330078H26.9187V26.3301H0.918701V0.330078Z" fill="black"/>
</mask>
<g mask="url(#mask0_5_927)">
<path d="M20.8668 5.71265C20.8668 8.75952 18.3622 10.4907 13.9189 14.3455C9.47553 10.4907 6.97095 8.75952 6.97095 5.71265C6.97095 4.21206 7.94036 1.65015 10.7221 1.65015C12.4299 1.65015 13.3765 2.89683 13.9189 3.88909C14.4612 2.89683 15.4078 1.65015 17.1155 1.65015C19.8973 1.65015 20.8668 4.21206 20.8668 5.71265Z" stroke="white" stroke-miterlimit="10" stroke-linecap="round" stroke-linejoin="round"/>
<path d="M21.3328 18.0236L23.9333 15.4226C24.209 15.1469 24.3796 14.766 24.3796 14.3455C24.3796 13.6823 23.9561 13.1181 23.364 12.9089" stroke="white" stroke-miterlimit="10" stroke-linecap="round" stroke-linejoin="round"/>
<path d="M4.47339 12.909C4.63233 12.8526 4.80296 12.8222 4.9812 12.8222C5.40167 12.8222 5.78253 12.9928 6.05827 13.2685L7.19882 14.4086C7.90823 15.118 9.60991 15.7802 10.6078 15.8802L10.6453 15.8843C11.9271 16.0128 12.9031 17.0919 12.9031 18.3802V25.0097H7.52026V21.9628L4.79483 20.6003C2.73058 19.5679 1.42651 17.458 1.42651 15.15V8.25183C1.42651 7.41039 2.10851 6.72839 2.94995 6.72839C3.7914 6.72839 4.47339 7.41039 4.47339 8.25183V12.909Z" stroke="white" stroke-miterlimit="10" stroke-linecap="round" stroke-linejoin="round"/>
<path d="M6.50464 18.0236L3.90413 15.4226C3.62839 15.1469 3.45776 14.766 3.45776 14.3455C3.45776 13.6823 3.88128 13.1181 4.47339 12.9089" stroke="white" stroke-miterlimit="10" stroke-linecap="round" stroke-linejoin="round"/>
<path d="M24.7351 19.8299C24.7351 20.1103 24.5077 20.3377 24.2273 20.3377C23.9469 20.3377 23.7195 20.1103 23.7195 19.8299C23.7195 19.5495 23.9469 19.3221 24.2273 19.3221C24.5077 19.3221 24.7351 19.5495 24.7351 19.8299Z" fill="white"/>
<path d="M25.6712 18.0599C26.1479 17.1829 26.4109 16.1864 26.4109 15.1499V8.25171C26.4109 7.41026 25.7289 6.72827 24.8875 6.72827C24.046 6.72827 23.364 7.41026 23.364 8.25171V12.9089C23.2051 12.8525 23.0344 12.822 22.8562 12.822C22.4357 12.822 22.0549 12.9927 21.7791 13.2685L20.6386 14.4085C19.9292 15.1179 18.2275 15.7801 17.2297 15.8801L17.1921 15.8842C15.9103 16.0127 14.9343 17.0918 14.9343 18.3801V25.0095H20.3171V21.9627L22.26 20.9914" stroke="white" stroke-miterlimit="10" stroke-linecap="round" stroke-linejoin="round"/>
</g>
</g>
</g>
</g>
<defs>
<clipPath id="clip0_5_927">
<rect width="27" height="26" fill="white" transform="translate(0.169922 0.330078)"/>
</clipPath>
<clipPath id="clip1_5_927">
<rect width="27" height="26" fill="white" transform="translate(0.169922 0.330078)"/>
</clipPath>
<clipPath id="clip2_5_927">
<rect width="27" height="26" fill="white" transform="translate(0.169922 0.330078)"/>
</clipPath>
</defs>
</svg>
