<svg width="72" height="73" viewBox="0 0 72 73" fill="none" xmlns="http://www.w3.org/2000/svg">
<rect x="0.5" y="1.38" width="71" height="71" rx="35.5" stroke="#307BC4"/>
<g clip-path="url(#clip0_25_736)">
<g clip-path="url(#clip1_25_736)">
<g clip-path="url(#clip2_25_736)">
<path fill-rule="evenodd" clip-rule="evenodd" d="M46.1993 41.8696C46.1993 42.197 45.9249 42.4647 45.5874 42.4647C45.2499 42.4647 44.975 42.197 44.975 41.8696C44.975 41.5415 45.2499 41.2745 45.5874 41.2745C45.9249 41.2746 46.1993 41.5415 46.1993 41.8696ZM25.799 41.8696C25.799 41.5415 26.0748 41.2745 26.4114 41.2745C26.7488 41.2745 27.0233 41.5415 27.0233 41.8696C27.0233 42.197 26.7488 42.4647 26.4114 42.4647C26.0748 42.4648 25.799 42.197 25.799 41.8696ZM52.2753 47.3177V33.9109H46.1994V39.6132C46.1994 39.9423 45.9262 40.2084 45.5875 40.2084C45.2492 40.2084 44.9751 39.9422 44.9751 39.6132V33.9109H36.6114V35.9233C38.4209 35.9097 40.0926 35.7464 41.8247 34.7577C42.1174 34.591 42.4914 34.6863 42.6627 34.9695C42.8343 35.2525 42.7363 35.6172 42.445 35.784C40.4642 36.9146 38.549 37.0984 36.6114 37.1135V39.4092C38.4209 39.3956 40.0926 39.2323 41.8247 38.2427C42.1174 38.0768 42.4914 38.1712 42.6627 38.4552C42.8343 38.7384 42.7363 39.1032 42.445 39.2697C40.4642 40.4005 38.549 40.5841 36.6114 40.5987V42.8941C38.4193 42.8806 40.0926 42.7182 41.8247 41.7285C42.1174 41.5626 42.4914 41.6571 42.6627 41.9403C42.8343 42.2242 42.7363 42.589 42.445 42.7548C40.4642 43.8864 38.549 44.0692 36.6114 44.0843V47.3177H44.9751V44.1252C44.9751 43.797 45.2492 43.53 45.5875 43.53C45.9262 43.53 46.1994 43.7971 46.1994 44.1252V47.3177H52.2753ZM47.3838 50.4831C47.3838 52.0126 46.1035 53.2574 44.5302 53.2574H43.7911V48.5082H47.3838V50.4831ZM36.6113 56.6895V53.963C36.6113 53.6348 36.3377 53.3677 35.9994 53.3677C35.6619 53.3677 35.387 53.6348 35.387 53.963V56.6895H29.432V48.5081H42.5666V56.6895H36.6113ZM27.4686 53.2573C25.8953 53.2573 24.615 52.0125 24.615 50.4831V48.508H28.2077V53.2572L27.4686 53.2573ZM19.7243 33.9109V47.3177H25.799V44.1253C25.799 43.7971 26.0739 43.5301 26.4114 43.5301C26.7497 43.5301 27.0233 43.7972 27.0233 44.1253V47.3177H35.387V44.0844C33.4508 44.07 31.5354 43.8864 29.5534 42.7549C29.2625 42.5891 29.1645 42.2243 29.3358 41.9404C29.5073 41.6573 29.8827 41.5628 30.1737 41.7286C31.9071 42.7183 33.5784 42.8814 35.387 42.895V40.5994C33.4491 40.5841 31.5354 40.4005 29.5534 39.2696C29.2625 39.1031 29.1645 38.7383 29.3358 38.4551C29.5073 38.1712 29.8827 38.0768 30.1737 38.2426C31.9062 39.2323 33.5784 39.3964 35.387 39.4091V37.1134C33.4491 37.0991 31.5354 36.9145 29.5534 35.7839C29.2625 35.6171 29.1645 35.2524 29.3358 34.9694C29.5073 34.6862 29.8827 34.591 30.1737 34.7576C31.9062 35.7463 33.5791 35.9096 35.387 35.9232V33.9108H27.0233V39.6131C27.0233 39.9422 26.7497 40.2083 26.4114 40.2083C26.0739 40.2083 25.799 39.9421 25.799 39.6131V33.9108L19.7243 33.9109ZM27.4686 31.6077H44.5301C45.4458 31.6077 46.2836 32.0329 46.8125 32.7207H25.1858C25.7151 32.0329 26.553 31.6077 27.4686 31.6077ZM52.8876 32.7207H48.2303C47.5673 31.3271 46.1322 30.4175 44.5302 30.4175H27.4686C25.8665 30.4175 24.4311 31.3272 23.7685 32.7207H19.1119C18.7732 32.7207 18.5 32.9868 18.5 33.3157V47.913C18.5 48.2419 18.7733 48.5081 19.1119 48.5081H23.3902V50.4831C23.3902 52.669 25.22 54.4477 27.4686 54.4477H28.2077V57.2848C28.2077 57.6129 28.4823 57.88 28.8197 57.88H43.1786C43.5173 57.88 43.791 57.6129 43.791 57.2848V54.4477H44.5301C46.7783 54.4477 48.608 52.669 48.608 50.4831V48.5081H52.8876C53.225 48.5081 53.5 48.2419 53.5 47.913V33.3158C53.5 32.9868 53.2251 32.7207 52.8876 32.7207ZM35.9994 17.0702C38.7727 17.0702 41.0292 19.2636 41.0292 21.9596C41.0292 24.6549 38.7728 26.8483 35.9994 26.8483C33.226 26.8483 30.9696 24.6549 30.9696 21.9596C30.9696 19.2636 33.226 17.0702 35.9994 17.0702ZM35.9994 28.0385C39.4476 28.0385 42.2535 25.3112 42.2535 21.9596C42.2535 18.6073 39.4477 15.88 35.9994 15.88C32.5507 15.88 29.7452 18.6073 29.7452 21.9596C29.7452 25.3111 32.5507 28.0385 35.9994 28.0385Z" fill="#307BC4"/>
</g>
</g>
</g>
<defs>
<clipPath id="clip0_25_736">
<rect width="35" height="42" fill="white" transform="translate(18.5 15.88)"/>
</clipPath>
<clipPath id="clip1_25_736">
<rect width="35" height="42" fill="white" transform="translate(18.5 15.88)"/>
</clipPath>
<clipPath id="clip2_25_736">
<rect width="35" height="42" fill="white" transform="translate(18.5 15.88)"/>
</clipPath>
</defs>
</svg>
