<svg width="78" height="72" viewBox="0 0 78 72" fill="none" xmlns="http://www.w3.org/2000/svg">
<g clip-path="url(#clip0_1_282)">
<g clip-path="url(#clip1_1_282)">
<g clip-path="url(#clip2_1_282)">
<path d="M49.1453 35.8125C48.3216 35.8125 47.6531 36.481 47.6531 37.3047C47.6531 38.1284 48.3216 38.7969 49.1453 38.7969C49.969 38.7969 50.6375 38.1284 50.6375 37.3047C50.6375 36.481 49.969 35.8125 49.1453 35.8125Z" fill="#307BC4"/>
<path d="M62.575 59.6875H60.7924L55.9346 32.4519C55.0303 27.4822 50.7079 23.875 45.6565 23.875H31.7434C26.6911 23.875 22.3692 27.4824 21.4659 32.457L16.6075 59.6875H14.825C12.3566 59.6875 10.3484 61.6957 10.3484 64.1641V70.1328C10.3484 70.9568 11.0164 71.625 11.8406 71.625H65.5593C66.3833 71.625 67.0515 70.9568 67.0515 70.1328V64.1641C67.0515 61.6957 65.0433 59.6875 62.575 59.6875ZM24.4032 32.9857C25.0476 29.4359 28.1347 26.8594 31.7434 26.8594H45.6565C49.2648 26.8594 52.3524 29.4361 52.9973 32.9811L57.7609 59.6875H19.639L24.4032 32.9857ZM64.0671 68.6406H13.3328V64.1641C13.3328 63.3413 14.0022 62.6719 14.825 62.6719C18.1783 62.6719 60.543 62.6719 62.575 62.6719C63.3977 62.6719 64.0671 63.3413 64.0671 64.1641V68.6406Z" fill="#307BC4"/>
<path d="M53.9561 54.9444L51.767 42.8949C51.6197 42.0838 50.8416 41.5454 50.0322 41.6934C49.2212 41.8407 48.6834 42.6174 48.8307 43.4282L51.0197 55.4777C51.168 56.2948 51.9511 56.826 52.7545 56.6792C53.5655 56.5319 54.1035 55.7551 53.9561 54.9444Z" fill="#307BC4"/>
<path d="M75.4078 35.8125H62.575C61.751 35.8125 61.0828 36.4807 61.0828 37.3047C61.0828 38.1287 61.751 38.7969 62.575 38.7969H75.4078C76.2317 38.7969 76.9 38.1287 76.9 37.3047C76.9 36.4807 76.2317 35.8125 75.4078 35.8125Z" fill="#307BC4"/>
<path d="M14.825 35.8125H1.99219C1.16805 35.8125 0.5 36.4807 0.5 37.3047C0.5 38.1287 1.16805 38.7969 1.99219 38.7969H14.825C15.6491 38.7969 16.3172 38.1287 16.3172 37.3047C16.3172 36.4807 15.6491 35.8125 14.825 35.8125Z" fill="#307BC4"/>
<path d="M65.0791 10.9257C64.4962 10.3431 63.5517 10.3431 62.9687 10.9257L54.5274 19.367C53.9447 19.9497 53.9447 20.8945 54.5274 21.4774C55.1104 22.0601 56.0548 22.0599 56.6378 21.4774L65.0791 13.0361C65.6619 12.4532 65.6619 11.5084 65.0791 10.9257Z" fill="#307BC4"/>
<path d="M22.8725 19.367L14.4312 10.9257C13.8484 10.3432 12.9037 10.343 12.3208 10.9257C11.7381 11.5084 11.7381 12.4533 12.3208 13.0361L20.7621 21.4774C21.3451 22.0601 22.2897 22.0601 22.8725 21.4774C23.4552 20.8947 23.4552 19.9499 22.8725 19.367Z" fill="#307BC4"/>
<path d="M38.7 0C37.876 0 37.2078 0.668202 37.2078 1.49219V13.4297C37.2078 14.2537 37.876 14.9219 38.7 14.9219C39.5239 14.9219 40.1921 14.2537 40.1921 13.4297V1.49219C40.1921 0.668202 39.5239 0 38.7 0Z" fill="#307BC4"/>
</g>
</g>
</g>
<defs>
<clipPath id="clip0_1_282">
<rect width="77" height="72" fill="white" transform="translate(0.5)"/>
</clipPath>
<clipPath id="clip1_1_282">
<rect width="77" height="72" fill="white" transform="translate(0.5)"/>
</clipPath>
<clipPath id="clip2_1_282">
<rect width="77" height="72" fill="white" transform="translate(0.5)"/>
</clipPath>
</defs>
</svg>
