<svg width="27" height="27" viewBox="0 0 27 27" fill="none" xmlns="http://www.w3.org/2000/svg">
<g clip-path="url(#clip0_1_121)">
<g clip-path="url(#clip1_1_121)">
<g clip-path="url(#clip2_1_121)">
<path d="M15.265 26.33H12.015C11.2566 26.33 10.39 25.68 10.39 24.38V22.105C10.39 21.0216 9.8483 20.0466 8.98164 19.2883C7.03164 17.7716 6.05664 15.605 6.05664 13.2216C6.16497 9.10497 9.5233 5.85497 13.5316 5.74664C15.59 5.74664 17.54 6.50497 18.9483 7.9133C20.3566 9.32164 21.2233 11.2716 21.2233 13.33C21.2233 15.605 20.2483 17.7716 18.4066 19.18C17.4316 19.9383 16.89 21.13 16.89 22.2133V24.705C16.89 25.5716 16.1316 26.33 15.265 26.33ZM13.64 6.82997C10.1733 6.82997 7.2483 9.75497 7.13997 13.2216C7.13997 15.28 8.00664 17.23 9.63164 18.4216C10.8233 19.3966 11.4733 20.6966 11.4733 22.105V24.38C11.4733 24.5966 11.4733 25.2466 12.015 25.2466H15.265C15.59 25.2466 15.8066 25.03 15.8066 24.705V22.2133C15.8066 20.805 16.565 19.2883 17.7566 18.3133C19.2733 17.1216 20.14 15.28 20.14 13.33C20.14 11.5966 19.49 9.97164 18.19 8.67164C16.9983 7.47997 15.3733 6.82997 13.64 6.82997Z" fill="white"/>
<path d="M16.3482 23.08H10.9316C10.6066 23.08 10.3899 22.8633 10.3899 22.5383C10.3899 22.2133 10.6066 21.9966 10.9316 21.9966H16.3482C16.6732 21.9966 16.8899 22.2133 16.8899 22.5383C16.8899 22.8633 16.6732 23.08 16.3482 23.08Z" fill="white"/>
<path d="M13.6397 3.58002C13.3147 3.58002 13.0981 3.36335 13.0981 3.03835V0.871684C13.0981 0.546684 13.3147 0.330017 13.6397 0.330017C13.9647 0.330017 14.1814 0.546684 14.1814 0.871684V3.03835C14.1814 3.36335 13.9647 3.58002 13.6397 3.58002Z" fill="white"/>
<path d="M20.8983 6.6134C20.79 6.6134 20.5733 6.6134 20.465 6.50507C20.2483 6.2884 20.2483 5.9634 20.465 5.74674L21.9817 4.23007C22.1983 4.0134 22.5233 4.0134 22.74 4.23007C22.9567 4.44674 22.9567 4.77174 22.74 4.9884L21.2233 6.50507C21.2233 6.50507 21.0067 6.6134 20.8983 6.6134Z" fill="white"/>
<path d="M26.0982 13.8717H23.9316C23.6066 13.8717 23.3899 13.655 23.3899 13.33C23.3899 13.005 23.6066 12.7884 23.9316 12.7884H26.0982C26.4232 12.7884 26.6399 13.005 26.6399 13.33C26.6399 13.655 26.4232 13.8717 26.0982 13.8717Z" fill="white"/>
<path d="M22.415 22.6467C22.3067 22.6467 22.09 22.6467 21.9817 22.5384L20.465 21.0217C20.2483 20.805 20.2483 20.48 20.465 20.2634C20.6817 20.0467 21.0067 20.0467 21.2233 20.2634L22.74 21.78C22.9567 21.9967 22.9567 22.3217 22.74 22.5384C22.74 22.6467 22.6317 22.6467 22.415 22.6467Z" fill="white"/>
<path d="M4.86512 22.6467C4.75678 22.6467 4.54012 22.6467 4.43178 22.5384C4.21512 22.3217 4.21512 21.9967 4.43178 21.78L5.94845 20.2634C6.16512 20.0467 6.49012 20.0467 6.70678 20.2634C6.92345 20.48 6.92345 20.805 6.70678 21.0217L5.19012 22.5384C5.08178 22.6467 4.97345 22.6467 4.86512 22.6467Z" fill="white"/>
<path d="M3.34822 13.8717H1.18156C0.85656 13.8717 0.639893 13.655 0.639893 13.33C0.639893 13.005 0.85656 12.7884 1.18156 12.7884H3.34822C3.67322 12.7884 3.88989 13.005 3.88989 13.33C3.88989 13.655 3.67322 13.8717 3.34822 13.8717Z" fill="white"/>
<path d="M6.38178 6.61334C6.27345 6.61334 6.05678 6.61334 5.94845 6.505L4.43178 4.88C4.21512 4.66334 4.21512 4.33834 4.43178 4.12167C4.64845 3.905 4.97345 3.905 5.19012 4.12167L6.70678 5.63834C6.92345 5.855 6.92345 6.18 6.70678 6.39667C6.59845 6.505 6.49012 6.61334 6.38178 6.61334Z" fill="white"/>
<path d="M17.9731 13.8717C17.6481 13.8717 17.4314 13.655 17.4314 13.33C17.4314 11.2717 15.6981 9.53835 13.6397 9.53835C13.3147 9.53835 13.0981 9.32169 13.0981 8.99669C13.0981 8.67169 13.3147 8.45502 13.6397 8.45502C16.3481 8.45502 18.5147 10.6217 18.5147 13.33C18.5147 13.655 18.2981 13.8717 17.9731 13.8717Z" fill="white"/>
</g>
</g>
</g>
<defs>
<clipPath id="clip0_1_121">
<rect width="26" height="26" fill="white" transform="translate(0.639893 0.330017)"/>
</clipPath>
<clipPath id="clip1_1_121">
<rect width="26" height="26" fill="white" transform="translate(0.639893 0.330017)"/>
</clipPath>
<clipPath id="clip2_1_121">
<rect width="26" height="26" fill="white" transform="translate(0.639893 0.330017)"/>
</clipPath>
</defs>
</svg>
