<svg width="18" height="19" viewBox="0 0 18 19" fill="none" xmlns="http://www.w3.org/2000/svg">
<g clip-path="url(#clip0_25_485)">
<g clip-path="url(#clip1_25_485)">
<g clip-path="url(#clip2_25_485)">
<path d="M17.3772 10.64C16.8449 10.2613 16.1363 10.2725 15.619 10.6738L11.9825 13.4712C11.8851 12.7362 11.2552 12.17 10.498 12.17H4.49968V11.42C4.49968 11.2137 4.33098 11.045 4.12479 11.045H2.25033C2.08162 11.045 1.93167 11.1612 1.88668 11.3262L0.0122188 18.4512C-0.0177726 18.5637 0.00846999 18.6837 0.0796995 18.7737C0.150929 18.8675 0.259648 18.92 0.375864 18.92H4.12479C4.33098 18.92 4.49968 18.7512 4.49968 18.545V17.8175L10.8316 18.17H10.8541C10.9403 18.17 11.0228 18.14 11.0865 18.0875L17.4447 12.9987C17.8084 12.7062 18.0108 12.2712 17.9996 11.8025C17.9846 11.3375 17.7596 10.9138 17.3772 10.64ZM3.74615 18.17H0.859476L2.53524 11.795H3.74615V12.545V14.795V17.42V18.17ZM16.9761 12.4137L10.7304 17.4125L4.49968 17.0637V14.795V12.92H10.498C10.9103 12.92 11.2477 13.2575 11.2477 13.67C11.2477 14.0825 10.9103 14.42 10.498 14.42H6.37414C6.16795 14.42 5.99925 14.5887 5.99925 14.795C5.99925 15.0012 6.16795 15.17 6.37414 15.17H10.498C10.8279 15.17 11.1315 15.0612 11.379 14.8812C11.3865 14.8775 11.394 14.87 11.4014 14.8662L16.0764 11.2662C16.3313 11.0712 16.6799 11.0637 16.9424 11.2512C17.1298 11.3862 17.2423 11.5925 17.2498 11.825C17.2535 12.0575 17.156 12.2712 16.9761 12.4137Z" fill="white"/>
<path d="M7.49501 6.92004H8.61969V8.04504C8.61969 8.25129 8.78839 8.42004 8.99458 8.42004H10.4941C10.7003 8.42004 10.869 8.25129 10.869 8.04504V6.92004H11.9937C12.1999 6.92004 12.3686 6.75129 12.3686 6.54504V5.04504C12.3686 4.83879 12.1999 4.67004 11.9937 4.67004H10.869V3.54504C10.869 3.33879 10.7003 3.17004 10.4941 3.17004H8.99458C8.78839 3.17004 8.61969 3.33879 8.61969 3.54504V4.67004H7.49501C7.28882 4.67004 7.12012 4.83879 7.12012 5.04504V6.54504C7.12012 6.75129 7.28882 6.92004 7.49501 6.92004ZM7.8699 5.42004H8.99458C9.20077 5.42004 9.36947 5.25129 9.36947 5.04504V3.92004H10.1193V5.04504C10.1193 5.25129 10.288 5.42004 10.4941 5.42004H11.6188V6.17004H10.4941C10.288 6.17004 10.1193 6.33879 10.1193 6.54504V7.67004H9.36947V6.54504C9.36947 6.33879 9.20077 6.17004 8.99458 6.17004H7.8699V5.42004Z" fill="white"/>
<path d="M2.99599 8.79504C3.20218 8.79504 3.37088 8.62629 3.37088 8.42004V6.17004H4.88544C5.07664 8.68254 7.18353 10.67 9.74405 10.67C12.3046 10.67 14.4115 8.68254 14.6027 6.17004H16.1172V8.42004C16.1172 8.62629 16.2859 8.79504 16.4921 8.79504C16.6983 8.79504 16.867 8.62629 16.867 8.42004V5.79504C16.867 5.58879 16.6983 5.42004 16.4921 5.42004H14.6027C14.4115 2.90754 12.3046 0.920044 9.74405 0.920044C7.18353 0.920044 5.07664 2.90754 4.88544 5.42004H2.99599C2.7898 5.42004 2.62109 5.58879 2.62109 5.79504V8.42004C2.62109 8.62629 2.7898 8.79504 2.99599 8.79504ZM9.74405 1.67004C12.0196 1.67004 13.8679 3.51879 13.8679 5.79504C13.8679 8.07129 12.0196 9.92004 9.74405 9.92004C7.46845 9.92004 5.62023 8.07129 5.62023 5.79504C5.62023 3.51879 7.4722 1.67004 9.74405 1.67004Z" fill="white"/>
<path d="M2.97046 16.9026C2.90298 16.7376 2.72678 16.6438 2.55058 16.6776C2.29191 16.7301 2.16444 17.0301 2.31065 17.2551C2.36689 17.3413 2.45686 17.3976 2.55058 17.4126C2.83925 17.4726 3.08293 17.1801 2.97046 16.9026Z" fill="white"/>
</g>
</g>
</g>
<defs>
<clipPath id="clip0_25_485">
<rect width="18" height="18" fill="white" transform="translate(0 0.920044)"/>
</clipPath>
<clipPath id="clip1_25_485">
<rect width="18" height="18" fill="white" transform="translate(0 0.920044)"/>
</clipPath>
<clipPath id="clip2_25_485">
<rect width="18" height="18" fill="white" transform="translate(0 0.920044)"/>
</clipPath>
</defs>
</svg>
