<svg width="74" height="74" viewBox="0 0 74 74" fill="none" xmlns="http://www.w3.org/2000/svg">
<g clip-path="url(#clip0_1_314)">
<g clip-path="url(#clip1_1_314)">
<g clip-path="url(#clip2_1_314)">
<path d="M67.6598 2.35996C62.4298 -0.5357 56.6985 1.44316 52.8695 4.39949C47.7641 1.92418 42.1798 0.593365 36.5067 0.5C30.8337 0.593247 25.2493 1.92407 20.144 4.39949C16.3143 1.44377 10.5837 -0.53692 5.35372 2.35996C3.56953 3.2918 2.14748 4.7926 1.31308 6.62438C0.478675 8.45616 0.279672 10.5141 0.747626 12.4718C1.43782 15.1027 2.76025 17.5252 4.59993 19.5286C4.54476 20.7009 4.74313 21.8713 5.18152 22.9599C5.6199 24.0485 6.28797 25.0297 7.14014 25.8366C8.43487 27.1706 10.1251 28.0517 11.9601 28.3492C12.2733 28.3939 12.5893 28.4167 12.9057 28.4172C13.59 28.4338 14.2706 28.3132 14.9076 28.0628C15.5445 27.8123 16.1249 27.4369 16.6146 26.9587C18.9171 24.6569 18.4133 20.4062 15.4919 17.4848C13.4205 15.4134 10.6848 14.5646 8.44426 15.0623C7.49288 13.9244 6.80142 12.5925 6.41822 11.1597C6.23489 10.4344 6.30995 9.6679 6.63049 8.99194C6.95102 8.31597 7.49701 7.77278 8.17461 7.45572C10.4268 6.20736 14.2742 6.52972 17.79 10.0584C17.9412 10.2096 18.0912 10.3583 18.2399 10.5046C19.2919 11.5359 20.1279 12.7665 20.6992 14.1245C21.2704 15.4825 21.5654 16.9406 21.567 18.4139C21.5355 20.7648 21.185 23.1007 20.5251 25.3573C17.9475 34.4543 20.1697 38.5511 22.9832 43.7376C25.9046 49.1287 29.5498 55.8473 29.5498 71.4361C29.5498 71.7205 29.6628 71.9933 29.8639 72.1944C30.065 72.3955 30.3378 72.5085 30.6223 72.5085C30.9067 72.5085 31.1795 72.3955 31.3806 72.1944C31.5817 71.9933 31.6947 71.7205 31.6947 71.4361C31.6947 55.3031 27.9086 48.3222 24.8659 42.7129C22.0842 37.5853 20.2469 34.1945 22.5861 25.9402C23.3003 23.496 23.679 20.9661 23.7119 18.42C23.7108 16.6603 23.3591 14.9185 22.6775 13.2962C21.9959 11.6739 20.998 10.2037 19.7419 8.97127C19.5979 8.83093 19.4545 8.68752 19.3093 8.54228C15.0053 4.22177 10.0928 3.93864 7.13524 5.57675C6.0508 6.12218 5.1831 7.01889 4.67361 8.12067C4.16412 9.22245 4.04288 10.4643 4.32967 11.6439C4.73555 13.2167 5.45812 14.6902 6.45315 15.9742C6.30024 16.0929 6.15473 16.2208 6.01742 16.3572C5.78691 16.5904 5.58151 16.8472 5.40458 17.1232C4.19559 15.6132 3.32062 13.8638 2.83741 11.9907C2.48198 10.4875 2.63865 8.90861 3.28256 7.50454C3.92648 6.10047 5.02077 4.95159 6.39187 4.24015C10.9318 1.72752 16.0453 3.75356 19.3172 6.48866C19.4775 6.62275 19.6735 6.70703 19.881 6.73109C20.0886 6.75516 20.2986 6.71796 20.4853 6.62409C25.4579 4.1078 30.9347 2.74755 36.5067 2.64493C42.0783 2.74669 47.5549 4.10589 52.5276 6.62103C52.7142 6.7149 52.9243 6.75209 53.1319 6.72803C53.3394 6.70396 53.5354 6.61969 53.6956 6.48559C56.9688 3.75111 62.0811 1.72323 66.621 4.23709C67.9929 4.9485 69.0877 6.09785 69.7317 7.50262C70.3757 8.90738 70.5319 10.487 70.1755 11.9907C69.6926 13.8661 68.8168 15.6175 67.6058 17.1288C67.4299 16.8528 67.2255 16.5961 66.9961 16.3627C66.8586 16.2264 66.7131 16.0985 66.5603 15.9797C67.5559 14.6945 68.2785 13.2195 68.6838 11.6451C68.9705 10.4656 68.8492 9.22372 68.3397 8.12197C67.8303 7.02021 66.9626 6.1235 65.8783 5.57798C62.9213 3.94048 58.0094 4.22299 53.703 8.5435C53.559 8.68875 53.4156 8.83215 53.274 8.97249C52.018 10.2048 51.0202 11.675 50.3386 13.2972C49.6571 14.9194 49.3056 16.6611 49.3047 18.4206C49.3376 20.967 49.7163 23.497 50.4304 25.9414C52.7696 34.1975 50.9324 37.5853 48.1507 42.7135C45.1049 48.3222 41.3188 55.3031 41.3188 71.4361C41.3188 71.7205 41.4317 71.9933 41.6329 72.1944C41.834 72.3955 42.1068 72.5085 42.3912 72.5085C42.6757 72.5085 42.9484 72.3955 43.1496 72.1944C43.3507 71.9933 43.4637 71.7205 43.4637 71.4361C43.4637 55.8473 47.1064 49.1287 50.0327 43.7358C52.8462 38.5493 55.0684 34.4525 52.4908 25.3561C51.8309 23.0992 51.4805 20.7632 51.449 18.412C51.4509 16.9395 51.7461 15.482 52.3172 14.1247C52.8883 12.7674 53.724 11.5374 54.7755 10.5064C54.925 10.3602 55.0749 10.2112 55.2253 10.0597C58.7417 6.53033 62.5885 6.20798 64.8413 7.45694C65.5187 7.77421 66.0644 8.31749 66.3847 8.99344C66.705 9.66938 66.7799 10.4358 66.5965 11.1609C66.213 12.5935 65.5216 13.9251 64.5705 15.0629C62.3305 14.5653 59.5942 15.414 57.5228 17.4854C54.6014 20.4068 54.0977 24.6556 56.4001 26.9593C56.8898 27.4375 57.4702 27.8129 58.1072 28.0634C58.7441 28.3139 59.4247 28.4344 60.109 28.4179C60.4254 28.4173 60.7414 28.3946 61.0546 28.3498C62.8896 28.0523 64.5798 27.1712 65.8746 25.8372C66.7266 25.0301 67.3945 24.0488 67.8327 22.9601C68.2708 21.8713 68.469 20.7009 68.4136 19.5286C70.2527 17.5263 71.5751 15.1051 72.2659 12.4755C72.7347 10.5172 72.5362 8.45848 71.7017 6.62592C70.8673 4.79336 69.4447 3.29196 67.6598 2.35996ZM13.9751 18.9985C16.0251 21.0491 16.5392 23.9987 15.0978 25.4395C13.6319 26.9054 10.7424 26.4028 8.65692 24.3167C6.60697 22.2668 6.0928 19.3172 7.5342 17.8758C7.82856 17.5957 8.17586 17.3772 8.55574 17.233C8.93563 17.0889 9.34047 17.0219 9.74654 17.0362C11.3565 17.12 12.8717 17.8231 13.9751 18.9985ZM64.3566 24.3167C62.2729 26.4004 59.3803 26.9048 57.9156 25.4395C56.4742 23.9987 56.9884 21.0491 59.0384 18.9985C61.122 16.9149 64.0134 16.4099 65.4793 17.8758C66.9207 19.3172 66.4065 22.2668 64.3566 24.3167Z" fill="#307BC4"/>
<path d="M46.3237 26.8123C44.9356 20.5001 45.7305 16.1177 46.6405 13.5566C46.7963 13.1161 46.8428 12.6444 46.7761 12.182C46.7093 11.7196 46.5314 11.2803 46.2575 10.9018C45.9832 10.5261 45.6233 10.2211 45.2077 10.0121C44.7921 9.80317 44.3326 9.69617 43.8674 9.70003C43.5119 9.70874 43.1563 9.68824 42.8042 9.63875C42.052 9.513 41.3178 9.29673 40.6176 8.99465C39.3233 8.41808 37.9223 8.12012 36.5054 8.12012C35.0885 8.12012 33.6875 8.41808 32.3933 8.99465C31.693 9.29673 30.9588 9.513 30.2067 9.63875C29.8543 9.68783 29.4985 9.70832 29.1428 9.70003C28.6774 9.69522 28.2177 9.80179 27.8019 10.0109C27.3861 10.2199 27.0264 10.5254 26.7527 10.9018C26.4788 11.2803 26.3009 11.7196 26.2342 12.182C26.1675 12.6444 26.214 13.1161 26.3697 13.5566C27.2797 16.1177 28.0746 20.497 26.6865 26.8123C25.1973 33.5909 26.4242 36.4547 28.1224 40.4173C30.2508 45.3813 33.1648 52.1838 33.1648 71.4355C33.1648 71.72 33.2778 71.9928 33.479 72.1939C33.6801 72.395 33.9529 72.508 34.2373 72.508C34.5217 72.508 34.7945 72.395 34.9956 72.1939C35.1968 71.9928 35.3098 71.72 35.3098 71.4355C35.3098 51.7438 32.2952 44.709 30.0939 39.5728C28.4423 35.7077 27.4428 33.3789 28.7849 27.2726C30.282 20.4609 29.3977 15.6636 28.3939 12.8384C28.3542 12.7248 28.3429 12.6032 28.3608 12.4843C28.3788 12.3653 28.4255 12.2525 28.4968 12.1557C28.5636 12.0604 28.6521 11.9824 28.7551 11.9282C28.8581 11.8741 28.9725 11.8453 29.0888 11.8444H29.1036C29.5749 11.8547 30.0462 11.827 30.5131 11.7616C31.4271 11.615 32.3198 11.3575 33.1716 10.995C34.2184 10.5137 35.3569 10.2645 36.5091 10.2645C37.6613 10.2645 38.7998 10.5137 39.8466 10.995C40.6984 11.3575 41.5911 11.615 42.5051 11.7616C42.972 11.827 43.4433 11.8546 43.9146 11.8444H43.922C44.0384 11.8454 44.1529 11.8741 44.256 11.9283C44.359 11.9824 44.4477 12.0604 44.5146 12.1557C44.586 12.2525 44.6327 12.3653 44.6506 12.4843C44.6686 12.6032 44.6572 12.7248 44.6176 12.8384C43.6131 15.6636 42.7294 20.4609 44.2266 27.2726C45.5681 33.3783 44.5685 35.7101 42.9139 39.5735C40.7126 44.7097 37.698 51.7444 37.698 71.4361C37.698 71.7206 37.811 71.9934 38.0121 72.1945C38.2132 72.3956 38.486 72.5086 38.7705 72.5086C39.0549 72.5086 39.3277 72.3956 39.5288 72.1945C39.7299 71.9934 39.8429 71.7206 39.8429 71.4361C39.8429 52.1844 42.757 45.3838 44.8854 40.4179C46.586 36.4547 47.8129 33.5909 46.3237 26.8123Z" fill="#307BC4"/>
</g>
</g>
</g>
<defs>
<clipPath id="clip0_1_314">
<rect width="73" height="73" fill="white" transform="translate(0.5 0.5)"/>
</clipPath>
<clipPath id="clip1_1_314">
<rect width="73" height="73" fill="white" transform="translate(0.5 0.5)"/>
</clipPath>
<clipPath id="clip2_1_314">
<rect width="73" height="73" fill="white" transform="translate(0.5 0.5)"/>
</clipPath>
</defs>
</svg>
