<svg width="27" height="25" viewBox="0 0 27 25" fill="none" xmlns="http://www.w3.org/2000/svg">
<g clip-path="url(#clip0_1_142)">
<g clip-path="url(#clip1_1_142)">
<g clip-path="url(#clip2_1_142)">
<path d="M7.47239 10.1326C7.47238 10.191 7.48437 10.2488 7.5077 10.3028C7.53103 10.3567 7.56523 10.4057 7.60834 10.447C7.65146 10.4883 7.70265 10.5211 7.75898 10.5434C7.81532 10.5658 7.8757 10.5773 7.93668 10.5772H10.6539C10.7149 10.5773 10.7753 10.5658 10.8316 10.5434C10.8879 10.5211 10.9391 10.4883 10.9822 10.447C11.0254 10.4057 11.0596 10.3567 11.0829 10.3028C11.1062 10.2488 11.1182 10.191 11.1182 10.1326V7.93511C11.7261 7.83072 12.2762 7.52494 12.6725 7.07127C13.0688 6.6176 13.2859 6.04493 13.2859 5.45342C13.2859 4.86192 13.0688 4.28924 12.6725 3.83557C12.2762 3.38191 11.7261 3.07613 11.1182 2.97173V0.774719C11.1182 0.716315 11.1062 0.658481 11.0829 0.60452C11.0596 0.550559 11.0254 0.501529 10.9822 0.460232C10.9391 0.418935 10.8879 0.386179 10.8316 0.363836C10.7753 0.341493 10.7149 0.330001 10.6539 0.330017H2.46319C1.92149 0.330539 1.40213 0.536866 1.01907 0.903728C0.636004 1.27059 0.420529 1.76802 0.419922 2.28687V10.1326C0.419905 10.191 0.431903 10.2488 0.45523 10.3028C0.478557 10.3567 0.512755 10.4057 0.555871 10.447C0.598988 10.4883 0.650177 10.5211 0.706514 10.5434C0.762851 10.5658 0.823232 10.5773 0.884208 10.5772H3.60146C3.66243 10.5773 3.72281 10.5658 3.77915 10.5434C3.83549 10.5211 3.88668 10.4883 3.92979 10.447C3.97291 10.4057 4.00711 10.3567 4.03043 10.3028C4.05376 10.2488 4.06576 10.191 4.06574 10.1326C4.07065 9.70296 4.25227 9.29255 4.57118 8.99043C4.89008 8.68831 5.32052 8.51885 5.76907 8.51885C6.21761 8.51885 6.64806 8.68831 6.96696 8.99043C7.28586 9.29255 7.46748 9.70296 7.47239 10.1326ZM3.17821 9.68786H1.34849V2.28687C1.34889 2.00385 1.46647 1.73253 1.67544 1.53242C1.8844 1.33231 2.1677 1.21975 2.46319 1.21942H10.1896V3.37735C10.1896 3.43575 10.2016 3.49359 10.225 3.54755C10.2483 3.60151 10.2825 3.65054 10.3256 3.69184C10.3687 3.73314 10.4199 3.76589 10.4762 3.78823C10.5326 3.81058 10.5929 3.82207 10.6539 3.82205C11.1023 3.82687 11.5307 4.00087 11.846 4.30629C12.1613 4.61171 12.3381 5.02392 12.3381 5.45345C12.3381 5.88298 12.1613 6.29517 11.8459 6.60059C11.5306 6.906 11.1023 7.07999 10.6539 7.08479C10.5929 7.08478 10.5325 7.09628 10.4762 7.11862C10.4199 7.14097 10.3687 7.17372 10.3256 7.21502C10.2825 7.25632 10.2483 7.30535 10.2249 7.3593C10.2016 7.41326 10.1896 7.47109 10.1896 7.52949V9.68786H8.35993C8.2466 9.10906 7.92561 8.58642 7.45249 8.21034C6.97937 7.83427 6.38389 7.62842 5.76907 7.62842C5.15425 7.62842 4.55876 7.83427 4.08565 8.21034C3.61253 8.58642 3.29154 9.10906 3.17821 9.68786Z" fill="white"/>
<path d="M24.3766 5.00897H16.1859C16.1249 5.00895 16.0645 5.02044 16.0082 5.04278C15.9518 5.06513 15.9007 5.09788 15.8575 5.13918C15.8144 5.18048 15.7802 5.22951 15.7569 5.28347C15.7336 5.33743 15.7216 5.39526 15.7216 5.45367V8.0563C15.7216 8.1147 15.7336 8.17254 15.7569 8.2265C15.7802 8.28046 15.8144 8.32949 15.8575 8.37079C15.9007 8.41208 15.9518 8.44484 16.0082 8.46718C16.0645 8.48952 16.1249 8.50102 16.1859 8.501C16.6343 8.50577 17.0627 8.67974 17.3781 8.98517C17.6934 9.2906 17.8703 9.70283 17.8703 10.1324C17.8703 10.5619 17.6934 10.9742 17.378 11.2796C17.0627 11.585 16.6343 11.759 16.1858 11.7637C16.1249 11.7637 16.0645 11.7752 16.0081 11.7976C15.9518 11.8199 15.9006 11.8527 15.8575 11.894C15.8144 11.9353 15.7802 11.9843 15.7569 12.0382C15.7336 12.0922 15.7216 12.15 15.7216 12.2084V14.0828H13.8916C13.7826 13.5007 13.4634 12.9738 12.9898 12.5943C12.5162 12.2149 11.9184 12.0069 11.3009 12.0069C10.6834 12.0069 10.0856 12.2149 9.61206 12.5943C9.13846 12.9738 8.81922 13.5007 8.71017 14.0828H6.41594C6.35497 14.0828 6.29459 14.0943 6.23825 14.1166C6.18191 14.1389 6.13072 14.1717 6.08761 14.213C6.04449 14.2543 6.01029 14.3033 5.98697 14.3573C5.96364 14.4112 5.95164 14.4691 5.95166 14.5275V22.3732C5.95226 22.892 6.16774 23.3895 6.5508 23.7563C6.93386 24.1232 7.45322 24.3295 7.99492 24.33H24.3766C24.9183 24.3295 25.4377 24.1232 25.8207 23.7563C26.2038 23.3895 26.4193 22.892 26.4199 22.3732V6.96583C26.4193 6.44697 26.2038 5.94954 25.8207 5.58268C25.4377 5.21582 24.9183 5.00949 24.3766 5.00897ZM18.8177 10.1326C18.8169 9.54128 18.5996 8.96897 18.2035 8.51543C17.8074 8.06188 17.2577 7.75586 16.6502 7.65071V5.89837H24.3766C24.6721 5.8987 24.9554 6.01126 25.1644 6.21137C25.3733 6.41148 25.4909 6.6828 25.4913 6.96583V14.0828H23.2383C23.1774 14.0828 23.117 14.0943 23.0607 14.1166C23.0043 14.1389 22.9531 14.1717 22.91 14.213C22.8669 14.2543 22.8327 14.3033 22.8094 14.3573C22.786 14.4112 22.774 14.4691 22.7741 14.5275C22.769 14.957 22.5874 15.3673 22.2685 15.6693C21.9496 15.9714 21.5192 16.1408 21.0707 16.1408C20.6222 16.1408 20.1919 15.9714 19.873 15.6693C19.5541 15.3673 19.3724 14.957 19.3674 14.5274C19.3674 14.469 19.3554 14.4112 19.3321 14.3572C19.3088 14.3033 19.2746 14.2543 19.2314 14.213C19.1883 14.1717 19.1371 14.1389 19.0808 14.1166C19.0245 14.0943 18.9641 14.0828 18.9031 14.0828H16.6502V12.614C17.2576 12.5089 17.8073 12.203 18.2034 11.7495C18.5995 11.296 18.8169 10.7238 18.8177 10.1326ZM6.88023 22.3732V14.9722H9.13341C9.19438 14.9722 9.25477 14.9607 9.3111 14.9384C9.36744 14.916 9.41863 14.8833 9.46174 14.842C9.50486 14.8007 9.53906 14.7516 9.56239 14.6977C9.58571 14.6437 9.59771 14.5859 9.59769 14.5275C9.59844 14.0953 9.77821 13.681 10.0976 13.3757C10.4169 13.0703 10.8497 12.8988 11.3009 12.8988C11.7521 12.8988 12.1849 13.0703 12.5042 13.3757C12.8236 13.681 13.0034 14.0953 13.0041 14.5275C13.0041 14.5859 13.0161 14.6437 13.0394 14.6977C13.0627 14.7516 13.0969 14.8007 13.14 14.842C13.1832 14.8833 13.2344 14.916 13.2907 14.9384C13.347 14.9607 13.4074 14.9722 13.4684 14.9722H15.7216V16.7249C15.1137 16.8293 14.5635 17.1351 14.1672 17.5888C13.771 18.0424 13.5538 18.6151 13.5538 19.2066C13.5538 19.7981 13.771 20.3708 14.1672 20.8245C14.5635 21.2781 15.1137 21.5839 15.7216 21.6883V23.4406H7.99492C7.69943 23.4403 7.41614 23.3277 7.20717 23.1276C6.99821 22.9275 6.88063 22.6562 6.88023 22.3732ZM24.3766 23.4406H16.6502V21.2827C16.6502 21.2243 16.6382 21.1665 16.6149 21.1125C16.5915 21.0585 16.5573 21.0095 16.5142 20.9682C16.4711 20.9269 16.4199 20.8941 16.3636 20.8718C16.3072 20.8495 16.2469 20.838 16.1859 20.838C15.7342 20.838 15.3009 20.6661 14.9815 20.3602C14.6621 20.0542 14.4827 19.6393 14.4827 19.2066C14.4827 18.774 14.6621 18.359 14.9815 18.0531C15.3009 17.7471 15.7342 17.5752 16.1859 17.5752C16.2469 17.5753 16.3072 17.5638 16.3636 17.5414C16.4199 17.5191 16.4711 17.4863 16.5142 17.445C16.5573 17.4037 16.5915 17.3547 16.6149 17.3007C16.6382 17.2468 16.6502 17.189 16.6502 17.1305V15.2558H18.4799C18.5888 15.838 18.9081 16.365 19.3817 16.7445C19.8553 17.1241 20.4532 17.3321 21.0707 17.3321C21.6883 17.3321 22.2862 17.1241 22.7598 16.7445C23.2334 16.365 23.5526 15.838 23.6616 15.2558H25.4913V22.3732C25.4909 22.6562 25.3733 22.9275 25.1644 23.1276C24.9554 23.3277 24.6721 23.4403 24.3766 23.4406Z" fill="white"/>
</g>
</g>
</g>
<defs>
<clipPath id="clip0_1_142">
<rect width="26" height="24" fill="white" transform="translate(0.419922 0.330017)"/>
</clipPath>
<clipPath id="clip1_1_142">
<rect width="26" height="24" fill="white" transform="translate(0.419922 0.330017)"/>
</clipPath>
<clipPath id="clip2_1_142">
<rect width="26" height="24" fill="white" transform="translate(0.419922 0.330017)"/>
</clipPath>
</defs>
</svg>
