<svg width="25" height="26" viewBox="0 0 25 26" fill="none" xmlns="http://www.w3.org/2000/svg">
<g opacity="0.5" clip-path="url(#clip0_17_1048)">
<path d="M0 11.9071H12.2396V0.0500031H0V11.9071ZM1.6129 1.6125H10.6267V10.3446H1.6129V1.6125ZM0 25.05H12.2396V13.1929H0V25.05ZM1.6129 14.7552H10.6267V23.4875H1.6129V14.7552ZM25 0.900223V2.46272H14.3731V0.900223H25ZM14.3731 9.49458H25V11.0571H14.3731V9.49458ZM14.3731 5.1975H25V6.76H14.3731V5.1975ZM14.3731 14.0429H25V15.6054H14.3731V14.0429ZM14.3731 22.6373H25V24.1998H14.3731V22.6373ZM14.3731 18.3402H25V19.9027H14.3731V18.3402Z" fill="#274760" fill-opacity="0.52"/>
</g>
<defs>
<clipPath id="clip0_17_1048">
<rect width="25" height="25" fill="white" transform="translate(0 0.0500031)"/>
</clipPath>
</defs>
</svg>
