<svg width="72" height="73" viewBox="0 0 72 73" fill="none" xmlns="http://www.w3.org/2000/svg">
<rect x="0.5" y="1.38" width="71" height="71" rx="35.5" stroke="#307BC4"/>
<g clip-path="url(#clip0_25_721)">
<g clip-path="url(#clip1_25_721)">
<g clip-path="url(#clip2_25_721)">
<path d="M45.0547 45.9658C41.4997 51.6697 36.2995 57.8798 30.5132 57.88C29.4993 57.88 28.4676 57.6893 27.4231 57.2718C24.1581 55.9634 22.7091 52.9476 23.1156 48.3083C23.1427 47.9957 23.4346 47.7624 23.7586 47.7895C24.0866 47.8155 24.33 48.0902 24.3025 48.4029C23.939 52.5541 25.1104 55.1127 27.8842 56.2241C34.101 58.7099 40.0945 51.7012 44.0307 45.3858C50.8239 34.46 47.5365 24.5988 41.2647 19.6729C37.3648 16.6097 32.3303 16.1605 28.439 18.527C24.853 20.7086 23.4098 24.5777 24.5778 28.8775C24.6603 29.1812 24.469 29.4912 24.1508 29.5698C23.8334 29.6496 23.507 29.4662 23.4249 29.1625C22.1404 24.4341 23.8163 19.9919 27.7982 17.5692C32.1333 14.9324 37.716 15.4136 42.0219 18.7958C48.6859 24.0299 52.2084 34.4608 45.0547 45.9658ZM42.401 42.116C42.4765 42.1463 42.5546 42.1607 42.6317 42.1607C42.8643 42.1607 43.085 42.03 43.181 41.8126C45.942 35.5542 45.4372 29.063 41.8311 24.449C39.4441 21.3953 36.0812 19.6937 33.0504 20.0093C29.6692 20.3604 28.2136 22.1652 27.588 23.6175C26.0179 27.2625 27.9198 32.4538 30.5062 35.4877C30.7137 35.731 31.0889 35.7682 31.3443 35.5701C31.5994 35.3721 31.6381 35.0143 31.4306 34.771C30.3919 33.5527 29.5775 32.1481 29.0268 30.7183C31.8285 30.8992 34.0764 31.4246 35.6998 32.2913C38.6858 33.8909 38.9625 36.5462 38.8615 37.9866C38.6609 40.8524 36.711 43.7766 34.4238 44.6439C33.2679 45.0794 32.2192 44.7174 31.6222 44.2345C31.1066 43.8175 30.8646 43.2771 30.975 42.7887C31.1325 42.0911 31.9668 41.5022 33.3237 41.131C33.64 41.0443 33.8227 40.7297 33.7321 40.4283C33.6411 40.1264 33.3082 39.9525 32.9954 40.0387C30.5674 40.7032 29.9581 41.8971 29.8106 42.5496C29.6066 43.4545 29.9957 44.4082 30.8516 45.1009C31.5607 45.6746 32.4528 45.9735 33.3667 45.9735C33.8677 45.9733 34.3752 45.8836 34.8625 45.7001C37.5875 44.6672 39.8174 41.3835 40.05 38.0623C40.2568 35.1141 38.9188 32.7127 36.2822 31.3003C34.385 30.2874 31.8825 29.7177 28.6436 29.5556C28.0722 27.533 28.0452 25.5462 28.6899 24.0493C29.4216 22.3513 30.9317 21.372 33.1794 21.1388C35.7514 20.8706 38.773 22.4373 40.8762 25.128C42.4855 27.1869 45.8244 32.8913 42.0833 41.3721C41.9554 41.6612 42.0979 41.9943 42.401 42.116Z" fill="#307BC4"/>
</g>
</g>
</g>
<defs>
<clipPath id="clip0_25_721">
<rect width="26" height="42" fill="white" transform="translate(23 15.88)"/>
</clipPath>
<clipPath id="clip1_25_721">
<rect width="26" height="42" fill="white" transform="translate(23 15.88)"/>
</clipPath>
<clipPath id="clip2_25_721">
<rect width="26" height="42" fill="white" transform="translate(23 15.88)"/>
</clipPath>
</defs>
</svg>
