<svg width="18" height="19" viewBox="0 0 18 19" fill="none" xmlns="http://www.w3.org/2000/svg">
<g clip-path="url(#clip0_25_477)">
<g clip-path="url(#clip1_25_477)">
<g clip-path="url(#clip2_25_477)">
<path d="M10.1993 4.52003C10.1993 2.53535 8.58411 0.920044 6.59957 0.920044C4.61503 0.920044 2.9998 2.53535 2.9998 4.52003C2.9998 4.6206 3.00332 4.72228 3.00976 4.82529C3.02737 5.23236 3.64107 5.19457 3.60855 4.78833C3.60288 4.69695 3.59919 4.6073 3.59919 4.51999C3.59919 2.8596 4.93869 1.51998 6.59899 1.51998C8.25929 1.51998 9.59879 2.85958 9.59879 4.51999C9.59879 4.89138 9.54802 5.29602 9.45232 5.71589C9.40208 5.72156 9.34764 5.73028 9.29823 5.74344V5.42001C9.29883 5.25428 9.16515 5.11941 8.99942 5.11882H8.39947C7.72104 5.11882 7.48254 4.42567 7.48254 4.42567C7.44044 4.29766 7.31831 4.21372 7.18373 4.21999C7.05974 4.22566 6.9524 4.30776 6.91363 4.42567C6.91363 4.42567 6.67412 5.11882 5.99904 5.11882H4.19857C4.03283 5.11943 3.89911 5.25428 3.89975 5.42001V5.74108C3.2999 5.59516 2.69982 6.01636 2.69982 6.61532C2.69982 7.49264 3.31727 8.04151 4.05062 8.11178C4.20256 8.5479 4.46342 8.93107 4.7997 9.23211V10.8206C4.79964 10.8528 4.8048 10.8849 4.81494 10.9155C5.09435 11.6049 5.75134 12.0205 6.60017 12.0205C7.44901 12.0205 8.10921 11.6022 8.38482 10.9155C8.39514 10.8849 8.40051 10.8528 8.40063 10.8206V9.23328C8.73694 8.9327 8.99853 8.54956 9.14999 8.11354C9.84316 8.04313 10.4993 7.51302 10.4993 6.61501C10.488 6.26867 10.2953 5.99945 10.0388 5.8489C10.1419 5.39566 10.1993 4.94535 10.1993 4.52003ZM12.5986 2.42062V2.71944H12.2998C11.8064 2.71944 11.3987 3.12778 11.3987 3.62119V5.72004C11.3987 7.442 12.7168 8.85343 14.3991 9.0048V13.2212C14.3991 13.7249 14.004 14.12 13.5003 14.12H13.1839C13.0305 12.1055 11.3534 10.52 9.29939 10.52C8.8939 10.5144 8.8939 11.1255 9.29939 11.12C11.0313 11.12 12.434 12.4294 12.5839 14.12H9.55602C9.42174 13.6053 8.95593 13.2212 8.40063 13.2212C7.74148 13.2212 7.20012 13.7596 7.20012 14.4188C7.20012 15.078 7.74148 15.6194 8.40063 15.6194C8.95543 15.6194 9.42067 15.2345 9.55543 14.72H13.5003C14.326 14.72 14.9996 14.0469 14.9996 13.2212V9.0048C16.681 8.85232 18 7.44119 18 5.72004V3.62119C18 3.12778 17.5917 2.71944 17.0983 2.71944H16.7995V2.42062C16.7995 2.01237 16.1995 2.0144 16.1995 2.42062V3.62119C16.2081 4.01244 16.7908 4.01244 16.7995 3.62119V3.32004H17.0983C17.2697 3.32004 17.4 3.44982 17.4 3.62119V5.72004C17.4 7.22103 16.1988 8.42002 14.6979 8.42002C13.197 8.42002 11.9986 7.22103 11.9986 5.72004V3.62119C11.9986 3.44982 12.1284 3.32004 12.2998 3.32004H12.5986V3.62119C12.5986 4.02158 13.1991 4.02158 13.1991 3.62119V2.42062C13.1991 2.02334 12.5986 2.00875 12.5986 2.42062ZM7.20012 5.12239C7.39082 5.37898 7.77553 5.71887 8.40004 5.71887H8.69885V7.22062C8.69884 8.38921 7.76809 9.32003 6.59957 9.32003C5.43106 9.32003 4.50029 8.38921 4.50029 7.22062V5.71887H5.99961C6.62508 5.71887 6.98474 5.39256 7.20012 5.12239ZM9.2865 7.47609C9.31035 7.12859 9.29881 6.77598 9.29881 6.41493C9.52194 6.18461 9.89819 6.3824 9.89701 6.62705C9.89486 7.07866 9.62194 7.37755 9.2865 7.47609ZM3.91323 7.47609C3.5778 7.37756 3.30272 7.07703 3.30272 6.62705C3.30272 6.33094 3.72136 6.21441 3.90033 6.41379C3.89824 6.76018 3.89512 7.14708 3.91323 7.47609ZM5.39965 9.63993C5.76097 9.81904 6.16838 9.92004 6.59957 9.92004C7.03114 9.92004 7.43827 9.81887 7.80008 9.63993V10.7474C7.80008 10.7474 7.55073 11.4206 6.60015 11.4206C5.64958 11.4206 5.39965 10.7474 5.39965 10.7474V9.63993ZM3.89975 10.52C1.74447 10.52 0 12.2646 0 14.42V18.62C1.79138e-05 18.7857 0.134313 18.92 0.29998 18.92H2.40922H10.8087H12.8992C13.0648 18.92 13.1991 18.7857 13.1991 18.62V15.62C13.2048 15.2143 12.5935 15.2143 12.5992 15.62V16.5206H11.0999V15.6194C11.0999 15.1947 10.4999 15.2286 10.4999 15.6194V18.32H2.70041V15.6194C2.70041 15.2146 2.10045 15.2137 2.10045 15.6194V16.5206H0.599961V14.42C0.599961 12.5866 2.06648 11.12 3.89975 11.12C4.30524 11.1257 4.30524 10.5145 3.89975 10.52ZM8.40063 13.8188C8.73553 13.8188 9.00059 14.0839 9.00059 14.4188C9.00059 14.7537 8.73553 15.0194 8.40063 15.0194C8.06572 15.0194 7.80008 14.7537 7.80008 14.4188C7.80008 14.0839 8.06572 13.8188 8.40063 13.8188ZM0.599961 17.1211H2.10045V18.32H0.599961V17.1211ZM11.0999 17.1211H12.5992V18.32H11.0999V17.1211Z" fill="white"/>
</g>
</g>
</g>
<defs>
<clipPath id="clip0_25_477">
<rect width="18" height="18" fill="white" transform="translate(0 0.920044)"/>
</clipPath>
<clipPath id="clip1_25_477">
<rect width="18" height="18" fill="white" transform="translate(0 0.920044)"/>
</clipPath>
<clipPath id="clip2_25_477">
<rect width="18" height="18" fill="white" transform="translate(0 0.920044)"/>
</clipPath>
</defs>
</svg>
