<svg width="90" height="74" viewBox="0 0 90 74" fill="none" xmlns="http://www.w3.org/2000/svg">
<g clip-path="url(#clip0_1_300)">
<g clip-path="url(#clip1_1_300)">
<g clip-path="url(#clip2_1_300)">
<path d="M32.782 33.4105V35.4926C32.782 36.2115 33.3646 36.7939 34.0833 36.7939C34.802 36.7939 35.3846 36.2115 35.3846 35.4926V33.4105C35.3846 32.6916 34.802 32.1091 34.0833 32.1091C33.3646 32.1091 32.782 32.6916 32.782 33.4105Z" fill="#307BC4"/>
<path d="M54.4531 33.4105V35.4926C54.4531 36.2115 55.0358 36.7939 55.7545 36.7939C56.4731 36.7939 57.0558 36.2115 57.0558 35.4926V33.4105C57.0558 32.6916 56.4731 32.1091 55.7545 32.1091C55.0358 32.1091 54.4531 32.6916 54.4531 33.4105Z" fill="#307BC4"/>
<path d="M46.7945 34.5758C45.8014 35.7156 44.0357 35.7147 43.0432 34.5758C42.5709 34.0341 41.749 33.9777 41.2071 34.4496C40.6653 34.9219 40.6089 35.7439 41.081 36.2857C43.1116 38.6157 46.7279 38.6136 48.7566 36.2857C49.2287 35.7439 49.1723 34.9219 48.6305 34.4496C48.0888 33.9775 47.2667 34.0339 46.7945 34.5758Z" fill="#307BC4"/>
<path d="M85.4777 4.37225C78.3411 2.65935 70.9504 4.08908 65.0216 8.28892C64.1158 7.46248 63.2276 6.88278 61.5945 6.82136C61.1948 5.73136 60.4112 4.80308 59.3696 4.22615C54.9681 1.78849 49.9721 0.5 44.9215 0.5C40.8799 0.5 36.8664 1.31568 33.1373 2.91701C32.4769 3.2007 32.1716 3.96589 32.4551 4.62627C32.7388 5.28665 33.5039 5.59203 34.1643 5.30851C37.6175 3.82551 41.2877 3.10267 44.9215 3.10267C49.5322 3.10267 54.0923 4.27838 58.1087 6.50297C58.7625 6.86508 59.199 7.52043 59.2761 8.25612C59.3455 8.91859 59.904 9.42177 60.5703 9.42177L61.1569 9.41778C61.9704 9.41778 62.4803 9.50384 63.0092 9.97388C66.5065 13.0832 69.1537 17.0684 70.6648 21.4978C70.7757 21.8233 70.7488 22.1679 70.6088 22.4681H70.2736C68.3958 22.4681 66.6305 21.7369 65.3028 20.4092L56.7911 11.8973C56.2828 11.3889 55.4588 11.389 54.9508 11.8973C48.1342 18.714 39.0711 22.4681 29.4308 22.4681H19.2292C19.089 22.1681 19.0616 21.8231 19.1721 21.499C21.0882 15.8814 24.8643 10.9716 29.8047 7.67417C30.4024 7.27509 30.5636 6.46705 30.1647 5.8693C29.7656 5.27156 28.9578 5.11019 28.3599 5.50927C27.1073 6.34524 25.9241 7.27682 24.8178 8.28978C18.8888 4.08908 11.4972 2.65883 4.36049 4.37225C1.60635 5.03333 -0.0614412 7.83501 0.673726 10.5786L2.96563 19.1327C3.84586 22.4179 7.65842 23.948 10.5378 22.1249C12.6103 20.8126 14.8489 19.8619 17.2175 19.2855C17.037 19.7389 16.8663 20.1965 16.7086 20.659C16.503 21.2618 16.4459 21.9085 16.5578 22.5618C12.7013 23.1548 9.73864 26.4956 9.73864 30.5154C9.73864 34.9283 13.3095 38.5215 17.7134 38.5607C20.2907 47.0196 26.7125 53.8176 34.9349 56.9111C31.3012 59.9095 29.1283 64.4236 29.1283 69.233V71.4428C29.1283 72.1617 29.711 72.7441 30.4297 72.7441H59.4085C60.1273 72.7441 60.7098 72.1617 60.7098 71.4428V69.233C60.7098 64.433 58.5355 59.9116 54.9034 56.9118C56.6129 56.271 58.2638 55.4676 59.8298 54.501C60.4412 54.1236 60.631 53.3218 60.2535 52.7102C59.8759 52.0987 59.0741 51.9089 58.4627 52.2865C54.4002 54.7939 49.7168 56.1194 44.9187 56.1194C30.6752 56.1194 19.0873 44.5312 19.0873 30.2875C19.0873 28.5326 19.2674 26.7828 19.6185 25.0707H29.4308C39.0596 25.0707 48.5599 21.4704 55.8557 14.6425L63.4626 22.2496C65.2692 24.056 67.6671 25.0555 70.2198 25.0694C70.5708 26.7807 70.7507 28.5311 70.7507 30.2875C70.7505 37.4872 67.7091 44.416 62.4062 49.2972C61.8774 49.7841 61.8434 50.6072 62.3301 51.1361C62.8178 51.6657 63.6409 51.6983 64.1687 51.2123C67.9246 47.7551 70.6477 43.3638 72.1133 38.5611C76.5222 38.5277 80.099 34.9321 80.099 30.5154C80.099 26.4954 77.1361 23.1547 73.2796 22.5616C73.3903 21.9139 73.336 21.2684 73.1283 20.6582C72.9704 20.1953 72.7976 19.7382 72.6172 19.2845C74.9868 19.8609 77.2265 20.8117 79.2998 22.1247C82.182 23.9492 85.9932 22.4131 86.872 19.1325L89.1641 10.5784C89.8985 7.83796 88.2342 5.03402 85.4777 4.37225ZM12.3413 30.5154C12.3413 27.7964 14.3445 25.5368 16.9525 25.1346C16.6416 26.8307 16.4846 28.5574 16.4846 30.2877C16.4846 32.2114 16.6777 34.0905 17.0435 35.9081C14.3915 35.5447 12.3413 33.2657 12.3413 30.5154ZM34.8856 69.2331V70.1417H31.7308V69.2331C31.7308 68.722 31.7619 68.2152 31.8193 67.7141C32.8312 68.0682 33.8586 68.3855 34.896 68.6561C34.8891 68.8485 34.8856 69.0411 34.8856 69.2331ZM58.1071 69.2331V70.1417H54.9524V69.2331C54.9524 69.0412 54.9489 68.8485 54.9419 68.6561C55.9794 68.3855 57.0066 68.0682 58.0183 67.7142C58.0759 68.2153 58.1071 68.7222 58.1071 69.2331ZM38.0395 57.8789C40.2433 58.4284 42.5472 58.7222 44.9187 58.7222C47.2526 58.7222 49.5617 58.4361 51.7986 57.8796C54.5149 59.5646 56.5053 62.1667 57.4648 65.1518C56.0953 65.6446 54.6909 66.0593 53.2745 66.3858C52.6329 66.534 52.2027 67.1378 52.273 67.7927C52.3238 68.2677 52.3497 68.7523 52.3497 69.2331V70.1417H37.4883V69.2331C37.4883 68.7523 37.5141 68.2679 37.565 67.7927C37.6353 67.1378 37.2051 66.5338 36.5635 66.3858C35.1468 66.0591 33.7417 65.6442 32.3714 65.1513C33.3299 62.1641 35.3206 59.5648 38.0395 57.8789ZM18.5717 16.3587C15.195 16.9029 12.0271 18.1011 9.14558 19.9258C7.75871 20.8039 5.90769 20.057 5.47964 18.4589L3.18773 9.905C2.83481 8.58857 3.62775 7.22477 4.96778 6.90308C11.223 5.40117 17.6953 6.59042 22.9479 10.1594C21.2351 12.0305 19.7613 14.1168 18.5717 16.3587ZM72.8858 25.1346C75.4935 25.5371 77.4965 27.7966 77.4965 30.5154C77.4965 33.2686 75.4419 35.5496 72.7857 35.9091C73.1587 34.0702 73.3532 32.1878 73.3532 30.2877C73.3532 28.5566 73.1962 26.8298 72.8858 25.1346ZM86.6502 9.905L84.3582 18.4589C83.9287 20.061 82.0746 20.8017 80.6924 19.9258C77.8118 18.1017 74.6447 16.9036 71.2692 16.3591C70.0822 14.1158 68.6112 12.0291 66.8948 10.1561C72.1464 6.58972 78.6163 5.40169 84.8702 6.90291C86.204 7.22321 87.0047 8.58215 86.6502 9.905Z" fill="#307BC4"/>
</g>
</g>
</g>
<defs>
<clipPath id="clip0_1_300">
<rect width="89" height="73" fill="white" transform="translate(0.5 0.5)"/>
</clipPath>
<clipPath id="clip1_1_300">
<rect width="89" height="73" fill="white" transform="translate(0.5 0.5)"/>
</clipPath>
<clipPath id="clip2_1_300">
<rect width="89" height="73" fill="white" transform="translate(0.5 0.5)"/>
</clipPath>
</defs>
</svg>
