<svg width="14" height="19" viewBox="0 0 14 19" fill="none" xmlns="http://www.w3.org/2000/svg">
<g clip-path="url(#clip0_25_451)">
<g clip-path="url(#clip1_25_451)">
<g clip-path="url(#clip2_25_451)">
<path d="M13.1721 8.85568C13.5791 8.57443 14 8.2837 14 7.84136C14 7.39889 13.5791 7.10817 13.1721 6.82692C12.9523 6.67517 12.6513 6.46725 12.6153 6.33171C12.5757 6.18326 12.7304 5.85545 12.8548 5.59219C13.0618 5.15329 13.2761 4.69955 13.0627 4.32945C12.8463 3.95441 12.3426 3.91389 11.8557 3.87476C11.5696 3.85182 11.2136 3.82312 11.1094 3.71875C11.0053 3.61438 10.9768 3.25732 10.9539 2.97031C10.9149 2.48196 10.8747 1.97701 10.5007 1.76002C10.1314 1.54593 9.67919 1.76071 9.24168 1.96835C8.97903 2.09305 8.65229 2.24823 8.50399 2.20854C8.36883 2.17243 8.16165 1.87058 8.01033 1.6503C7.72974 1.24216 7.43971 0.820007 6.99849 0.820007C6.55742 0.820007 6.26752 1.24216 5.98721 1.6503C5.83589 1.87071 5.6287 2.17243 5.49368 2.20868C5.34538 2.24851 5.01905 2.09332 4.75641 1.96863C4.31862 1.76099 3.86617 1.54634 3.4974 1.76071C3.12356 1.97769 3.08343 2.48265 3.04468 2.97086C3.02195 3.25787 2.9936 3.61493 2.88953 3.7193C2.78559 3.82367 2.42956 3.85237 2.14349 3.8753C1.65668 3.91458 1.15316 3.95509 0.93693 4.33014C0.723444 4.70038 0.937752 5.15397 1.14508 5.59274C1.26942 5.85586 1.42416 6.18353 1.38458 6.33198C1.34857 6.46753 1.04758 6.6753 0.827928 6.82705C0.420948 7.1083 0 7.39903 0 7.84136C0 8.28356 0.420948 8.57443 0.827928 8.85554C1.04771 9.00729 1.34857 9.2152 1.38458 9.35061C1.42416 9.49893 1.26942 9.82659 1.14494 10.09C0.937752 10.5286 0.723444 10.9822 0.936793 11.3523C1.15302 11.7274 1.65654 11.7679 2.14349 11.8071C2.22285 11.8135 2.30737 11.8206 2.39063 11.8293L0.204312 17.0385C0.119684 17.2401 0.156109 17.4676 0.299484 17.6321C0.442995 17.7969 0.662917 17.8638 0.873254 17.8069L2.07543 17.4854L2.78559 18.5648C2.90406 18.7448 3.1088 18.8367 3.30925 18.8175C3.51725 18.7986 3.69733 18.667 3.77908 18.4742L5.78228 13.7454C6.13084 14.1999 6.44625 14.8627 6.99849 14.8627C7.55189 14.8627 7.86702 14.198 8.21687 13.7435L10.2209 18.4743C10.3027 18.667 10.4827 18.7986 10.6908 18.8175C10.8912 18.8367 11.0959 18.7448 11.2144 18.5648L11.93 17.4832L13.1267 17.8069C13.3372 17.8638 13.5569 17.7969 13.7005 17.6321C13.8439 17.4676 13.8803 17.2401 13.7958 17.0387L11.6097 11.8301C11.6926 11.8214 11.7767 11.8144 11.8557 11.808C12.3426 11.769 12.8462 11.7285 13.0625 11.3534C13.276 10.9832 13.0618 10.5294 12.8546 10.0905C12.7304 9.82714 12.5757 9.49947 12.6153 9.35116C12.6513 9.21548 12.9523 9.00756 13.1721 8.85568ZM3.25379 18.255L2.54376 17.1756C2.40828 16.9696 2.15792 16.8765 1.92398 16.9401L0.721253 17.2569L2.92294 12.0111C2.96666 12.0914 2.99175 12.2297 3.0048 12.3198C3.00905 12.3584 3.01858 12.3902 3.04427 12.7127C3.08302 13.2005 3.12301 13.7049 3.49685 13.9235C3.86645 14.1362 4.31848 13.9223 4.75545 13.7149C4.92443 13.635 5.11984 13.5422 5.27759 13.4968L3.25379 18.255ZM12.0762 16.9402C11.8408 16.8765 11.5908 16.9707 11.4561 17.1756L10.7372 18.2542L8.72213 13.4974C8.90354 13.5501 9.12701 13.661 9.35256 13.7666C9.84453 13.997 10.3747 14.1873 10.7029 13.7355C10.7094 13.7267 10.7177 13.7194 10.7238 13.7104C10.7253 13.708 10.7263 13.7053 10.7278 13.7028C10.8945 13.4466 10.9248 13.0751 10.9538 12.7123C10.9618 12.6115 10.9708 12.5023 10.9833 12.3982C10.9842 12.39 10.9851 12.3815 10.9861 12.3732C10.9899 12.3433 10.9942 12.3142 10.9988 12.2856C11.0056 12.2433 11.0131 12.2028 11.0219 12.1656C11.0257 12.1494 11.0302 12.1351 11.0344 12.1203C11.0456 12.0814 11.0577 12.0453 11.0725 12.0173C11.0737 12.0148 11.0752 12.0127 11.0765 12.0104L13.276 17.2643C12.6398 17.0925 12.043 16.9313 12.0762 16.9402ZM12.3477 10.3311C12.4653 10.5805 12.6431 10.9571 12.5769 11.0716C12.5079 11.1914 12.0885 11.225 11.8108 11.2474C11.586 11.2654 11.358 11.285 11.1555 11.3375C10.4987 11.474 10.4422 12.0587 10.3937 12.6682C10.3771 12.8768 10.3542 13.1655 10.2939 13.326C10.2103 13.5465 10.0152 13.4552 9.58423 13.2545L9.58094 13.2529C9.55594 13.241 9.54726 13.2372 9.48159 13.206C9.25992 13.1008 9.03421 12.995 8.8157 12.9418C8.7995 12.9379 8.7831 12.9327 8.76705 12.9293C8.76089 12.928 8.75493 12.9277 8.7488 12.9265C8.53611 12.8854 8.33835 12.9023 8.15665 13.0237C7.92173 13.1727 7.73221 13.4456 7.5483 13.7133C7.38767 13.947 7.14502 14.3002 6.99849 14.3002C6.85224 14.3002 6.60973 13.947 6.44923 13.7133C5.86808 12.8666 5.596 12.7051 4.6598 13.1387C4.59496 13.1687 4.55763 13.1859 4.51635 13.2054C4.26781 13.3234 3.89246 13.5014 3.77826 13.4352C3.65912 13.366 3.62585 12.9453 3.60366 12.667C3.51264 11.5184 3.30329 11.3364 2.18841 11.2464C1.91083 11.224 1.49139 11.1903 1.42238 11.0708C1.35637 10.9563 1.53412 10.5798 1.65188 10.3309C1.83251 9.94854 2.01915 9.55331 1.92658 9.20532C1.83702 8.86955 1.48578 8.62689 1.14617 8.39233C0.913103 8.23138 0.560898 7.98803 0.560898 7.84136C0.560898 7.69456 0.913103 7.45135 1.14603 7.2904C1.48578 7.05571 1.83702 6.81305 1.92658 6.47714C2.01915 6.12942 1.83251 5.73419 1.65188 5.35187C1.53425 5.10275 1.35637 4.72633 1.42251 4.6118C1.49139 4.49219 1.91083 4.4584 2.18841 4.43616C2.60525 4.40251 3.03633 4.36777 3.28638 4.117C3.53643 3.86597 3.57066 3.43365 3.6038 3.01549C3.62598 2.73712 3.65926 2.31662 3.77839 2.24741C3.89246 2.18163 4.26795 2.35919 4.51649 2.47716C4.89773 2.65802 5.29183 2.84506 5.63856 2.75209C5.97338 2.66228 6.21534 2.31003 6.44923 1.96945C6.60973 1.73572 6.85224 1.38251 6.99849 1.38251C7.14502 1.38251 7.38781 1.73572 7.54844 1.96945C7.78233 2.31003 8.0243 2.66214 8.35911 2.75195C8.70611 2.84479 9.10049 2.65775 9.48159 2.47675C9.73 2.35892 10.1058 2.18067 10.2197 2.24686C10.3391 2.31607 10.3726 2.73685 10.3948 3.01535C10.4282 3.43338 10.4626 3.86569 10.7128 4.11659C10.963 4.36735 11.3941 4.40196 11.8109 4.43547C12.0885 4.45785 12.5081 4.4915 12.5771 4.61111C12.6432 4.72565 12.4655 5.1022 12.3478 5.35145C12.1674 5.73364 11.9807 6.12901 12.0734 6.47686C12.1628 6.81277 12.5141 7.05543 12.8538 7.29013C13.0869 7.45108 13.4391 7.69442 13.4391 7.84136C13.4391 7.98817 13.0869 8.23152 12.8538 8.3926C12.5141 8.62716 12.1628 8.86996 12.0733 9.20587C11.9807 9.55372 12.1672 9.94895 12.3477 10.3311Z" fill="white"/>
<path d="M6.99977 3.67841C4.71085 3.67841 2.84863 5.54581 2.84863 7.8414C2.84863 10.1367 4.71085 12.0042 6.99977 12.0042C9.28869 12.0042 11.1509 10.1367 11.1509 7.8414C11.1509 5.54581 9.28869 3.67841 6.99977 3.67841ZM6.99977 11.4417C5.02006 11.4417 3.40953 9.82663 3.40953 7.8414C3.40953 5.85603 5.02006 4.24091 6.99977 4.24091C8.97949 4.24091 10.59 5.85603 10.59 7.8414C10.59 9.82663 8.97949 11.4417 6.99977 11.4417Z" fill="white"/>
<path d="M8.90795 6.92644H7.80245L7.45832 5.86983C7.39314 5.66988 7.20841 5.53558 6.99862 5.53558C6.78856 5.53571 6.60369 5.67043 6.53865 5.8708L6.19712 6.92644H5.09203C4.88197 6.92644 4.69724 7.06103 4.63233 7.26139C4.56729 7.46175 4.63781 7.67956 4.80761 7.80356L5.70168 8.45574L5.36043 9.51043C5.29566 9.71079 5.36632 9.92859 5.5364 10.0523C5.7062 10.1759 5.93489 10.1759 6.10469 10.0521L6.99821 9.40056L7.89611 10.0537C8.06733 10.1783 8.29599 10.1764 8.46441 10.0534C8.63421 9.92955 8.70473 9.71189 8.63996 9.51152L8.2983 8.45574L9.19237 7.80343C9.36217 7.67956 9.4327 7.46175 9.36765 7.26139C9.30274 7.06103 9.11801 6.92644 8.90795 6.92644ZM7.92268 8.034C7.75315 8.15787 7.68263 8.37554 7.7474 8.57576L8.03319 9.45851L7.28208 8.91222C7.19718 8.85042 7.09763 8.81952 6.99807 8.81952C6.89852 8.81952 6.79883 8.85042 6.71379 8.91249L5.96748 9.45673L6.25258 8.57576C6.31735 8.37554 6.24683 8.15787 6.07717 8.03386L5.33003 7.48894H6.25327C6.4636 7.48894 6.64847 7.35422 6.71324 7.15372L6.9989 6.27084L7.28674 7.15455C7.35179 7.35464 7.53651 7.48894 7.74644 7.48894H8.66995L7.92268 8.034Z" fill="white"/>
</g>
</g>
</g>
<defs>
<clipPath id="clip0_25_451">
<rect width="14" height="18" fill="white" transform="translate(0 0.820007)"/>
</clipPath>
<clipPath id="clip1_25_451">
<rect width="14" height="18" fill="white" transform="translate(0 0.820007)"/>
</clipPath>
<clipPath id="clip2_25_451">
<rect width="14" height="18" fill="white" transform="translate(0 0.820007)"/>
</clipPath>
</defs>
</svg>
