<svg width="50" height="39" viewBox="0 0 50 39" fill="none" xmlns="http://www.w3.org/2000/svg">
<g clip-path="url(#clip0_1_455)">
<g clip-path="url(#clip1_1_455)">
<path d="M39.5541 13.9055C39.4534 12.7588 39.5304 9.64164 42.3655 5.30701C42.5799 4.97992 42.541 4.53877 42.2747 4.25833C41.1188 3.04087 40.4032 2.27263 39.9013 1.73504C39.2413 1.02621 38.9399 0.703227 38.4989 0.282075C38.2045 0.00328165 37.7589 -0.00157294 37.4613 0.271707C32.5198 4.80077 27.0312 14.1594 27.8254 25.6252C28.2908 32.3577 32.9531 37.2444 38.911 37.2444C45.0251 37.2444 49.9995 32.0057 49.9995 25.5657C49.9995 19.353 45.37 14.2582 39.5541 13.9055ZM38.911 35.5986C33.7946 35.5986 29.7885 31.354 29.3834 25.5062C28.4899 12.6109 35.7676 4.23422 37.9664 2.0163C38.1808 2.23889 38.4257 2.50081 38.7866 2.88815C39.2214 3.35423 39.8166 3.99229 40.7168 4.94379C37.2752 10.5288 37.9245 14.5082 38.209 15.0787C38.3441 15.3496 38.621 15.532 38.911 15.532C44.1638 15.532 48.437 20.0329 48.437 25.5657C48.437 31.0977 44.1638 35.5986 38.911 35.5986Z" fill="#307BC4"/>
<path d="M11.8075 13.9053C11.7061 12.7618 11.7808 9.64703 14.619 5.30681C14.8326 4.97971 14.7944 4.53856 14.5282 4.25812C13.3746 3.04305 12.6597 2.27563 12.1585 1.73804C11.4963 1.02765 11.1941 0.703762 10.7532 0.28187C10.4586 0.00307629 10.0131 -0.000955909 9.71559 0.270678C4.77403 4.79975 -0.715346 14.1568 0.0773101 25.625C0.544263 32.3566 5.20731 37.2442 11.1651 37.2442C17.2793 37.2442 22.2537 32.0055 22.2537 25.5655C22.2537 19.3521 17.6242 14.2565 11.8075 13.9053ZM11.1651 35.5984C6.04965 35.5984 2.04114 31.3538 1.63528 25.5052C0.744185 12.6067 8.02184 4.23319 10.2206 2.01609C10.4357 2.23868 10.6815 2.50225 11.0431 2.89041C11.4772 3.35649 12.0715 3.99373 12.9703 4.94359C9.52864 10.5294 10.1779 14.5079 10.4625 15.0777C10.5975 15.3485 10.8752 15.5318 11.1651 15.5318C16.418 15.5318 20.6912 20.0327 20.6912 25.5655C20.6912 31.0975 16.418 35.5984 11.1651 35.5984Z" fill="#307BC4"/>
</g>
</g>
<defs>
<clipPath id="clip0_1_455">
<rect width="50" height="38" fill="white" transform="translate(0 0.0698242)"/>
</clipPath>
<clipPath id="clip1_1_455">
<rect width="50" height="38" fill="white" transform="translate(0 0.0698242)"/>
</clipPath>
</defs>
</svg>
