<svg width="72" height="73" viewBox="0 0 72 73" fill="none" xmlns="http://www.w3.org/2000/svg">
<rect x="0.5" y="1.38" width="71" height="71" rx="35.5" stroke="#307BC4"/>
<g clip-path="url(#clip0_25_728)">
<g clip-path="url(#clip1_25_728)">
<g clip-path="url(#clip2_25_728)">
<path d="M35.3436 56.6094L15.9884 37.2524C11.2953 32.5585 11.3437 24.9689 16.0965 20.3338C20.8504 15.6981 28.511 15.7243 33.2273 20.4405L35.9997 23.213L38.7738 20.4404C43.4852 15.725 51.1499 15.6974 55.9043 20.3338C60.6566 24.9702 60.7043 32.5599 56.0106 37.2525L36.6554 56.6094C36.2943 56.9704 35.7043 56.97 35.3436 56.6094ZM17.3918 21.6294C13.3624 25.559 13.3213 31.9936 17.3001 35.9731L35.9994 54.6741L54.6988 35.9731C58.6782 31.9946 58.6376 25.56 54.6086 21.6292C50.5786 17.6993 44.0805 17.721 40.0854 21.7196L36.655 25.1482C36.2888 25.5143 35.6981 25.5026 35.3434 25.1481L31.9155 21.7199C27.9192 17.7236 21.4243 17.6971 17.3918 21.6294Z" fill="#307BC4"/>
<path d="M40.2238 44.07L35.5508 33.3783L31.7803 42.2413C31.5128 42.8696 30.6643 42.9953 30.2223 42.4713L25.8897 37.3366H16.4618C15.9528 37.3366 15.54 36.929 15.54 36.4263C15.54 35.9236 15.9528 35.5159 16.4618 35.5159H26.3214C26.595 35.5159 26.8544 35.6359 27.0296 35.8435L30.668 40.1554L34.6896 30.7023C34.8333 30.3647 35.168 30.1446 35.5395 30.1446C35.9072 30.1446 36.24 30.3605 36.3859 30.6942L40.9048 41.0336L44.4879 28.9778C44.6012 28.5965 44.9516 28.3319 45.3539 28.3239C45.7516 28.3154 46.1171 28.5665 46.2458 28.9431L48.4917 35.5158H55.538C56.047 35.5158 56.4598 35.9235 56.4598 36.4262C56.4598 36.9289 56.047 37.3366 55.538 37.3366H47.8299C47.4343 37.3366 47.0828 37.0874 46.9565 36.7172L45.4336 32.2605L41.9548 43.9656C41.8454 44.3337 41.5142 44.5945 41.1265 44.6179C40.74 44.6416 40.3781 44.4229 40.2238 44.07Z" fill="#307BC4"/>
</g>
</g>
</g>
<defs>
<clipPath id="clip0_25_728">
<rect width="47" height="40" fill="white" transform="translate(12.5 16.88)"/>
</clipPath>
<clipPath id="clip1_25_728">
<rect width="47" height="40" fill="white" transform="translate(12.5 16.88)"/>
</clipPath>
<clipPath id="clip2_25_728">
<rect width="47" height="40" fill="white" transform="translate(12.5 16.88)"/>
</clipPath>
</defs>
</svg>
