<svg width="72" height="73" viewBox="0 0 72 73" fill="none" xmlns="http://www.w3.org/2000/svg">
<rect x="0.5" y="1.38" width="71" height="71" rx="35.5" stroke="#307BC4"/>
<g clip-path="url(#clip0_25_713)">
<g clip-path="url(#clip1_25_713)">
<g clip-path="url(#clip2_25_713)">
<path d="M46.1639 29.6471L47.9616 27.8406V25.7448L56.7954 16.8678L55.8124 15.88L46.9786 24.757H44.8931L43.0953 26.5636L40.3146 23.7692L22.9349 41.234L20.8493 39.1382L17.7808 42.2218L21.9519 46.4133L18.7638 49.6171L18.0686 48.9185L15 52.0021L20.8493 57.88L23.9179 54.7964L23.2227 54.0978L26.4108 50.8941L30.5819 55.0856L33.6505 52.0021L31.5649 49.9063L48.9446 32.4415L46.1639 29.6471ZM45.4687 26.1542H46.5713V27.2621L45.1809 28.6593L44.0783 27.5514L45.4687 26.1542ZM20.8493 55.9044L16.966 52.0021L18.0686 50.8941L21.9519 54.7964L20.8493 55.9044ZM22.2397 53.11L19.7467 50.6049L22.9349 47.4011L25.4278 49.9063L22.2397 53.11ZM31.6845 52.0021L30.5819 53.11L27.3938 49.9063L22.9349 45.4255L19.7467 42.2218L20.8493 41.1138L21.9519 42.2218L30.5819 50.8941L31.6845 52.0021ZM30.5819 48.9185L23.9179 42.2218L26.4108 39.7166L29.3953 42.7157L30.3782 41.7279L27.3938 38.7288L29.8867 36.2237L34.2616 40.6199L35.2446 39.6321L30.8697 35.2359L33.3627 32.7307L36.3471 35.7298L37.3301 34.742L34.3457 31.7429L36.8386 29.2378L41.2134 33.634L42.1964 32.6462L37.8216 28.25L40.3146 25.7448L42.1123 27.5514L45.1809 30.6349L46.9786 32.4415L30.5819 48.9185Z" fill="#307BC4"/>
<path d="M56.22 25.0811L54.2185 23.0706L52.2178 25.0811C51.178 26.125 51.1773 27.8182 52.2161 28.863C52.7155 29.3653 53.3932 29.6474 54.0996 29.6471H54.3381C55.8078 29.6476 56.9997 28.4508 57.0002 26.9738C57.0005 26.2638 56.7198 25.5829 56.22 25.0811ZM55.2358 27.8758C54.9975 28.1152 54.6744 28.2497 54.3374 28.2498H54.099C53.3967 28.2496 52.8276 27.6773 52.8279 26.9717C52.828 26.633 52.9619 26.3083 53.2001 26.0688L54.2185 25.0461L55.2363 26.0688C55.7327 26.568 55.7326 27.3769 55.2358 27.8758Z" fill="#307BC4"/>
</g>
</g>
</g>
<defs>
<clipPath id="clip0_25_713">
<rect width="42" height="42" fill="white" transform="translate(15 15.88)"/>
</clipPath>
<clipPath id="clip1_25_713">
<rect width="42" height="42" fill="white" transform="translate(15 15.88)"/>
</clipPath>
<clipPath id="clip2_25_713">
<rect width="42" height="42" fill="white" transform="translate(15 15.88)"/>
</clipPath>
</defs>
</svg>
